<svg xmlns="http://www.w3.org/2000/svg" width="17.67" height="16.49" viewBox="0 0 17.67 16.49">
  <path id="Path_51612" data-name="Path 51612" d="M15.61,4.5a2.921,2.921,0,0,0-4.13-.02,2.921,2.921,0,0,0-.03,4.13l.02.02.01.01A2.924,2.924,0,0,0,15.61,4.5m-1.68-.03.16.05A2.106,2.106,0,0,1,15.57,6l.05.16H13.93ZM11.69,7.61a2.04,2.04,0,0,1-.28-1.05,2.118,2.118,0,0,1,1.56-2.04l.16-.04V6.4L11.77,7.75Zm3.88-.49a2.03,2.03,0,0,1-.21.5,2.085,2.085,0,0,1-1.83,1.06,2.04,2.04,0,0,1-1.05-.28l-.14-.08,1.35-1.36h1.92Zm-7.36-.4a.4.4,0,0,0-.4.4V8.96H6.37V5.44a.4.4,0,1,0-.8,0V8.96H4.13V3.76a.4.4,0,0,0-.8,0v5.6a.4.4,0,0,0,.4.4H8.21a.4.4,0,0,0,.4-.4V7.12a.4.4,0,0,0-.4-.4m7.4-2.22a2.921,2.921,0,0,0-4.13-.02,2.921,2.921,0,0,0-.03,4.13l.02.02.01.01A2.924,2.924,0,0,0,15.61,4.5m-1.68-.03.16.05A2.106,2.106,0,0,1,15.57,6l.05.16H13.93ZM11.69,7.61a2.04,2.04,0,0,1-.28-1.05,2.118,2.118,0,0,1,1.56-2.04l.16-.04V6.4L11.77,7.75Zm3.88-.49a2.03,2.03,0,0,1-.21.5,2.085,2.085,0,0,1-1.83,1.06,2.04,2.04,0,0,1-1.05-.28l-.14-.08,1.35-1.36h1.92Zm-7.36-.4a.4.4,0,0,0-.4.4V8.96H6.37V5.44a.4.4,0,1,0-.8,0V8.96H4.13V3.76a.4.4,0,0,0-.8,0v5.6a.4.4,0,0,0,.4.4H8.21a.4.4,0,0,0,.4-.4V7.12a.4.4,0,0,0-.4-.4m0,0a.4.4,0,0,0-.4.4V8.96H6.37V5.44a.4.4,0,1,0-.8,0V8.96H4.13V3.76a.4.4,0,0,0-.8,0v5.6a.4.4,0,0,0,.4.4H8.21a.4.4,0,0,0,.4-.4V7.12a.4.4,0,0,0-.4-.4m7.4-2.22a2.921,2.921,0,0,0-4.13-.02,2.921,2.921,0,0,0-.03,4.13l.02.02.01.01A2.924,2.924,0,0,0,15.61,4.5m-1.68-.03.16.05A2.106,2.106,0,0,1,15.57,6l.05.16H13.93ZM11.69,7.61a2.04,2.04,0,0,1-.28-1.05,2.118,2.118,0,0,1,1.56-2.04l.16-.04V6.4L11.77,7.75Zm3.88-.49a2.03,2.03,0,0,1-.21.5,2.085,2.085,0,0,1-1.83,1.06,2.04,2.04,0,0,1-1.05-.28l-.14-.08,1.35-1.36h1.92Zm.04-2.62a2.921,2.921,0,0,0-4.13-.02,2.921,2.921,0,0,0-.03,4.13l.02.02.01.01A2.924,2.924,0,0,0,15.61,4.5m-1.68-.03.16.05A2.106,2.106,0,0,1,15.57,6l.05.16H13.93ZM11.69,7.61a2.04,2.04,0,0,1-.28-1.05,2.118,2.118,0,0,1,1.56-2.04l.16-.04V6.4L11.77,7.75Zm3.88-.49a2.03,2.03,0,0,1-.21.5,2.085,2.085,0,0,1-1.83,1.06,2.04,2.04,0,0,1-1.05-.28l-.14-.08,1.35-1.36h1.92Zm-7.36-.4a.4.4,0,0,0-.4.4V8.96H6.37V5.44a.4.4,0,1,0-.8,0V8.96H4.13V3.76a.4.4,0,0,0-.8,0v5.6a.4.4,0,0,0,.4.4H8.21a.4.4,0,0,0,.4-.4V7.12a.4.4,0,0,0-.4-.4m0,0a.4.4,0,0,0-.4.4V8.96H6.37V5.44a.4.4,0,1,0-.8,0V8.96H4.13V3.76a.4.4,0,0,0-.8,0v5.6a.4.4,0,0,0,.4.4H8.21a.4.4,0,0,0,.4-.4V7.12a.4.4,0,0,0-.4-.4m7.4-2.22a2.921,2.921,0,0,0-4.13-.02,2.921,2.921,0,0,0-.03,4.13l.02.02.01.01A2.924,2.924,0,0,0,15.61,4.5m-1.68-.03.16.05A2.106,2.106,0,0,1,15.57,6l.05.16H13.93ZM11.69,7.61a2.04,2.04,0,0,1-.28-1.05,2.118,2.118,0,0,1,1.56-2.04l.16-.04V6.4L11.77,7.75Zm3.88-.49a2.03,2.03,0,0,1-.21.5,2.085,2.085,0,0,1-1.83,1.06,2.04,2.04,0,0,1-1.05-.28l-.14-.08,1.35-1.36h1.92Zm.04-2.62a2.921,2.921,0,0,0-4.13-.02,2.921,2.921,0,0,0-.03,4.13l.02.02.01.01A2.924,2.924,0,0,0,15.61,4.5m-1.68-.03.16.05A2.106,2.106,0,0,1,15.57,6l.05.16H13.93ZM11.69,7.61a2.04,2.04,0,0,1-.28-1.05,2.118,2.118,0,0,1,1.56-2.04l.16-.04V6.4L11.77,7.75Zm3.88-.49a2.03,2.03,0,0,1-.21.5,2.085,2.085,0,0,1-1.83,1.06,2.04,2.04,0,0,1-1.05-.28l-.14-.08,1.35-1.36h1.92Zm-7.36-.4a.4.4,0,0,0-.4.4V8.96H6.37V5.44a.4.4,0,1,0-.8,0V8.96H4.13V3.76a.4.4,0,0,0-.8,0v5.6a.4.4,0,0,0,.4.4H8.21a.4.4,0,0,0,.4-.4V7.12a.4.4,0,0,0-.4-.4m0,0a.4.4,0,0,0-.4.4V8.96H6.37V5.44a.4.4,0,1,0-.8,0V8.96H4.13V3.76a.4.4,0,0,0-.8,0v5.6a.4.4,0,0,0,.4.4H8.21a.4.4,0,0,0,.4-.4V7.12a.4.4,0,0,0-.4-.4m7.4-2.22a2.921,2.921,0,0,0-4.13-.02,2.921,2.921,0,0,0-.03,4.13l.02.02.01.01A2.924,2.924,0,0,0,15.61,4.5m-1.68-.03.16.05A2.106,2.106,0,0,1,15.57,6l.05.16H13.93ZM11.69,7.61a2.04,2.04,0,0,1-.28-1.05,2.118,2.118,0,0,1,1.56-2.04l.16-.04V6.4L11.77,7.75Zm3.88-.49a2.03,2.03,0,0,1-.21.5,2.085,2.085,0,0,1-1.83,1.06,2.04,2.04,0,0,1-1.05-.28l-.14-.08,1.35-1.36h1.92Zm.04-2.62a2.921,2.921,0,0,0-4.13-.02,2.921,2.921,0,0,0-.03,4.13l.02.02.01.01A2.924,2.924,0,0,0,15.61,4.5m-1.68-.03.16.05A2.106,2.106,0,0,1,15.57,6l.05.16H13.93ZM11.69,7.61a2.04,2.04,0,0,1-.28-1.05,2.118,2.118,0,0,1,1.56-2.04l.16-.04V6.4L11.77,7.75Zm3.88-.49a2.03,2.03,0,0,1-.21.5,2.085,2.085,0,0,1-1.83,1.06,2.04,2.04,0,0,1-1.05-.28l-.14-.08,1.35-1.36h1.92Zm-7.36-.4a.4.4,0,0,0-.4.4V8.96H6.37V5.44a.4.4,0,1,0-.8,0V8.96H4.13V3.76a.4.4,0,0,0-.8,0v5.6a.4.4,0,0,0,.4.4H8.21a.4.4,0,0,0,.4-.4V7.12a.4.4,0,0,0-.4-.4m0,0a.4.4,0,0,0-.4.4V8.96H6.37V5.44a.4.4,0,1,0-.8,0V8.96H4.13V3.76a.4.4,0,0,0-.8,0v5.6a.4.4,0,0,0,.4.4H8.21a.4.4,0,0,0,.4-.4V7.12a.4.4,0,0,0-.4-.4m7.4-2.22a2.921,2.921,0,0,0-4.13-.02,2.921,2.921,0,0,0-.03,4.13l.02.02.01.01A2.924,2.924,0,0,0,15.61,4.5m-1.68-.03.16.05A2.106,2.106,0,0,1,15.57,6l.05.16H13.93ZM11.69,7.61a2.04,2.04,0,0,1-.28-1.05,2.118,2.118,0,0,1,1.56-2.04l.16-.04V6.4L11.77,7.75Zm3.88-.49a2.03,2.03,0,0,1-.21.5,2.085,2.085,0,0,1-1.83,1.06,2.04,2.04,0,0,1-1.05-.28l-.14-.08,1.35-1.36h1.92Zm.04-2.62a2.921,2.921,0,0,0-4.13-.02,2.921,2.921,0,0,0-.03,4.13l.02.02.01.01A2.924,2.924,0,0,0,15.61,4.5m-1.68-.03.16.05A2.106,2.106,0,0,1,15.57,6l.05.16H13.93ZM11.69,7.61a2.04,2.04,0,0,1-.28-1.05,2.118,2.118,0,0,1,1.56-2.04l.16-.04V6.4L11.77,7.75Zm3.88-.49a2.03,2.03,0,0,1-.21.5,2.085,2.085,0,0,1-1.83,1.06,2.04,2.04,0,0,1-1.05-.28l-.14-.08,1.35-1.36h1.92Zm-7.36-.4a.4.4,0,0,0-.4.4V8.96H6.37V5.44a.4.4,0,1,0-.8,0V8.96H4.13V3.76a.4.4,0,0,0-.8,0v5.6a.4.4,0,0,0,.4.4H8.21a.4.4,0,0,0,.4-.4V7.12a.4.4,0,0,0-.4-.4m0,0a.4.4,0,0,0-.4.4V8.96H6.37V5.44a.4.4,0,1,0-.8,0V8.96H4.13V3.76a.4.4,0,0,0-.8,0v5.6a.4.4,0,0,0,.4.4H8.21a.4.4,0,0,0,.4-.4V7.12a.4.4,0,0,0-.4-.4m7.4-2.22a2.921,2.921,0,0,0-4.13-.02,2.921,2.921,0,0,0-.03,4.13l.02.02.01.01A2.924,2.924,0,0,0,15.61,4.5m-1.68-.03.16.05A2.106,2.106,0,0,1,15.57,6l.05.16H13.93ZM11.69,7.61a2.04,2.04,0,0,1-.28-1.05,2.118,2.118,0,0,1,1.56-2.04l.16-.04V6.4L11.77,7.75Zm3.88-.49a2.03,2.03,0,0,1-.21.5,2.085,2.085,0,0,1-1.83,1.06,2.04,2.04,0,0,1-1.05-.28l-.14-.08,1.35-1.36h1.92Zm.04-2.62a2.921,2.921,0,0,0-4.13-.02,2.921,2.921,0,0,0-.03,4.13l.02.02.01.01A2.924,2.924,0,0,0,15.61,4.5m-1.68-.03.16.05A2.106,2.106,0,0,1,15.57,6l.05.16H13.93ZM11.69,7.61a2.04,2.04,0,0,1-.28-1.05,2.118,2.118,0,0,1,1.56-2.04l.16-.04V6.4L11.77,7.75Zm3.88-.49a2.03,2.03,0,0,1-.21.5,2.085,2.085,0,0,1-1.83,1.06,2.04,2.04,0,0,1-1.05-.28l-.14-.08,1.35-1.36h1.92Zm-7.36-.4a.4.4,0,0,0-.4.4V8.96H6.37V5.44a.4.4,0,1,0-.8,0V8.96H4.13V3.76a.4.4,0,0,0-.8,0v5.6a.4.4,0,0,0,.4.4H8.21a.4.4,0,0,0,.4-.4V7.12a.4.4,0,0,0-.4-.4M17.27,0H2.5A1.451,1.451,0,0,0,1.05,1.45V11.68A1.455,1.455,0,0,0,2.5,13.12H7.73l-.42,2.56H6.53a.4.4,0,1,0,0,.8l6.72.01a.4.4,0,0,0,0-.8h-.78l-.43-2.56h5.23a1.451,1.451,0,0,0,1.45-1.45V1.45A1.451,1.451,0,0,0,17.27,0M8.12,15.68l.43-2.56h2.68l.43,2.56Zm9.8-4a.649.649,0,0,1-.65.65H2.5a.649.649,0,0,1-.65-.65V1.45A.649.649,0,0,1,2.5.8H9.49v.72a.4.4,0,0,0,.8,0V.8h6.98a.649.649,0,0,1,.65.65Zm-6.44-7.2a2.921,2.921,0,0,0-.03,4.13l.02.02.01.01a2.924,2.924,0,1,0,0-4.16m.21,3.13a2.04,2.04,0,0,1-.28-1.05,2.118,2.118,0,0,1,1.56-2.04l.16-.04V6.4L11.77,7.75Zm3.88-.49a2.03,2.03,0,0,1-.21.5,2.085,2.085,0,0,1-1.83,1.06,2.04,2.04,0,0,1-1.05-.28l-.14-.08,1.35-1.36h1.92Zm-1.64-.96V4.47l.16.05A2.106,2.106,0,0,1,15.57,6l.05.16Zm-5.72.56a.4.4,0,0,0-.4.4V8.96H6.37V5.44a.4.4,0,1,0-.8,0V8.96H4.13V3.76a.4.4,0,0,0-.8,0v5.6a.4.4,0,0,0,.4.4H8.21a.4.4,0,0,0,.4-.4V7.12a.4.4,0,0,0-.4-.4m0,0a.4.4,0,0,0-.4.4V8.96H6.37V5.44a.4.4,0,1,0-.8,0V8.96H4.13V3.76a.4.4,0,0,0-.8,0v5.6a.4.4,0,0,0,.4.4H8.21a.4.4,0,0,0,.4-.4V7.12a.4.4,0,0,0-.4-.4m7.4-2.22a2.921,2.921,0,0,0-4.13-.02,2.921,2.921,0,0,0-.03,4.13l.02.02.01.01A2.924,2.924,0,0,0,15.61,4.5m-1.68-.03.16.05A2.106,2.106,0,0,1,15.57,6l.05.16H13.93ZM11.69,7.61a2.04,2.04,0,0,1-.28-1.05,2.118,2.118,0,0,1,1.56-2.04l.16-.04V6.4L11.77,7.75Zm3.88-.49a2.03,2.03,0,0,1-.21.5,2.085,2.085,0,0,1-1.83,1.06,2.04,2.04,0,0,1-1.05-.28l-.14-.08,1.35-1.36h1.92Zm.04-2.62a2.921,2.921,0,0,0-4.13-.02,2.921,2.921,0,0,0-.03,4.13l.02.02.01.01A2.924,2.924,0,0,0,15.61,4.5m-1.68-.03.16.05A2.106,2.106,0,0,1,15.57,6l.05.16H13.93ZM11.69,7.61a2.04,2.04,0,0,1-.28-1.05,2.118,2.118,0,0,1,1.56-2.04l.16-.04V6.4L11.77,7.75Zm3.88-.49a2.03,2.03,0,0,1-.21.5,2.085,2.085,0,0,1-1.83,1.06,2.04,2.04,0,0,1-1.05-.28l-.14-.08,1.35-1.36h1.92Zm-7.36-.4a.4.4,0,0,0-.4.4V8.96H6.37V5.44a.4.4,0,1,0-.8,0V8.96H4.13V3.76a.4.4,0,0,0-.8,0v5.6a.4.4,0,0,0,.4.4H8.21a.4.4,0,0,0,.4-.4V7.12a.4.4,0,0,0-.4-.4m0,0a.4.4,0,0,0-.4.4V8.96H6.37V5.44a.4.4,0,1,0-.8,0V8.96H4.13V3.76a.4.4,0,0,0-.8,0v5.6a.4.4,0,0,0,.4.4H8.21a.4.4,0,0,0,.4-.4V7.12a.4.4,0,0,0-.4-.4m7.4-2.22a2.921,2.921,0,0,0-4.13-.02,2.921,2.921,0,0,0-.03,4.13l.02.02.01.01A2.924,2.924,0,0,0,15.61,4.5m-1.68-.03.16.05A2.106,2.106,0,0,1,15.57,6l.05.16H13.93ZM11.69,7.61a2.04,2.04,0,0,1-.28-1.05,2.118,2.118,0,0,1,1.56-2.04l.16-.04V6.4L11.77,7.75Zm3.88-.49a2.03,2.03,0,0,1-.21.5,2.085,2.085,0,0,1-1.83,1.06,2.04,2.04,0,0,1-1.05-.28l-.14-.08,1.35-1.36h1.92Zm.04-2.62a2.921,2.921,0,0,0-4.13-.02,2.921,2.921,0,0,0-.03,4.13l.02.02.01.01A2.924,2.924,0,0,0,15.61,4.5m-1.68-.03.16.05A2.106,2.106,0,0,1,15.57,6l.05.16H13.93ZM11.69,7.61a2.04,2.04,0,0,1-.28-1.05,2.118,2.118,0,0,1,1.56-2.04l.16-.04V6.4L11.77,7.75Zm3.88-.49a2.03,2.03,0,0,1-.21.5,2.085,2.085,0,0,1-1.83,1.06,2.04,2.04,0,0,1-1.05-.28l-.14-.08,1.35-1.36h1.92Zm-7.36-.4a.4.4,0,0,0-.4.4V8.96H6.37V5.44a.4.4,0,1,0-.8,0V8.96H4.13V3.76a.4.4,0,0,0-.8,0v5.6a.4.4,0,0,0,.4.4H8.21a.4.4,0,0,0,.4-.4V7.12a.4.4,0,0,0-.4-.4m0,0a.4.4,0,0,0-.4.4V8.96H6.37V5.44a.4.4,0,1,0-.8,0V8.96H4.13V3.76a.4.4,0,0,0-.8,0v5.6a.4.4,0,0,0,.4.4H8.21a.4.4,0,0,0,.4-.4V7.12a.4.4,0,0,0-.4-.4m7.4-2.22a2.921,2.921,0,0,0-4.13-.02,2.921,2.921,0,0,0-.03,4.13l.02.02.01.01A2.924,2.924,0,0,0,15.61,4.5m-1.68-.03.16.05A2.106,2.106,0,0,1,15.57,6l.05.16H13.93ZM11.69,7.61a2.04,2.04,0,0,1-.28-1.05,2.118,2.118,0,0,1,1.56-2.04l.16-.04V6.4L11.77,7.75Zm3.88-.49a2.03,2.03,0,0,1-.21.5,2.085,2.085,0,0,1-1.83,1.06,2.04,2.04,0,0,1-1.05-.28l-.14-.08,1.35-1.36h1.92Zm.04-2.62a2.921,2.921,0,0,0-4.13-.02,2.921,2.921,0,0,0-.03,4.13l.02.02.01.01A2.924,2.924,0,0,0,15.61,4.5m-1.68-.03.16.05A2.106,2.106,0,0,1,15.57,6l.05.16H13.93ZM11.69,7.61a2.04,2.04,0,0,1-.28-1.05,2.118,2.118,0,0,1,1.56-2.04l.16-.04V6.4L11.77,7.75Zm3.88-.49a2.03,2.03,0,0,1-.21.5,2.085,2.085,0,0,1-1.83,1.06,2.04,2.04,0,0,1-1.05-.28l-.14-.08,1.35-1.36h1.92Zm-7.36-.4a.4.4,0,0,0-.4.4V8.96H6.37V5.44a.4.4,0,1,0-.8,0V8.96H4.13V3.76a.4.4,0,0,0-.8,0v5.6a.4.4,0,0,0,.4.4H8.21a.4.4,0,0,0,.4-.4V7.12a.4.4,0,0,0-.4-.4m0,0a.4.4,0,0,0-.4.4V8.96H6.37V5.44a.4.4,0,1,0-.8,0V8.96H4.13V3.76a.4.4,0,0,0-.8,0v5.6a.4.4,0,0,0,.4.4H8.21a.4.4,0,0,0,.4-.4V7.12a.4.4,0,0,0-.4-.4m7.4-2.22a2.921,2.921,0,0,0-4.13-.02,2.921,2.921,0,0,0-.03,4.13l.02.02.01.01A2.924,2.924,0,0,0,15.61,4.5m-1.68-.03.16.05A2.106,2.106,0,0,1,15.57,6l.05.16H13.93ZM11.69,7.61a2.04,2.04,0,0,1-.28-1.05,2.118,2.118,0,0,1,1.56-2.04l.16-.04V6.4L11.77,7.75Zm3.88-.49a2.03,2.03,0,0,1-.21.5,2.085,2.085,0,0,1-1.83,1.06,2.04,2.04,0,0,1-1.05-.28l-.14-.08,1.35-1.36h1.92Zm.04-2.62a2.921,2.921,0,0,0-4.13-.02,2.921,2.921,0,0,0-.03,4.13l.02.02.01.01A2.924,2.924,0,0,0,15.61,4.5m-1.68-.03.16.05A2.106,2.106,0,0,1,15.57,6l.05.16H13.93ZM11.69,7.61a2.04,2.04,0,0,1-.28-1.05,2.118,2.118,0,0,1,1.56-2.04l.16-.04V6.4L11.77,7.75Zm3.88-.49a2.03,2.03,0,0,1-.21.5,2.085,2.085,0,0,1-1.83,1.06,2.04,2.04,0,0,1-1.05-.28l-.14-.08,1.35-1.36h1.92Zm-7.36-.4a.4.4,0,0,0-.4.4V8.96H6.37V5.44a.4.4,0,1,0-.8,0V8.96H4.13V3.76a.4.4,0,0,0-.8,0v5.6a.4.4,0,0,0,.4.4H8.21a.4.4,0,0,0,.4-.4V7.12a.4.4,0,0,0-.4-.4m0,0a.4.4,0,0,0-.4.4V8.96H6.37V5.44a.4.4,0,1,0-.8,0V8.96H4.13V3.76a.4.4,0,0,0-.8,0v5.6a.4.4,0,0,0,.4.4H8.21a.4.4,0,0,0,.4-.4V7.12a.4.4,0,0,0-.4-.4m7.4-2.22a2.921,2.921,0,0,0-4.13-.02,2.921,2.921,0,0,0-.03,4.13l.02.02.01.01A2.924,2.924,0,0,0,15.61,4.5m-1.68-.03.16.05A2.106,2.106,0,0,1,15.57,6l.05.16H13.93ZM11.69,7.61a2.04,2.04,0,0,1-.28-1.05,2.118,2.118,0,0,1,1.56-2.04l.16-.04V6.4L11.77,7.75Zm3.88-.49a2.03,2.03,0,0,1-.21.5,2.085,2.085,0,0,1-1.83,1.06,2.04,2.04,0,0,1-1.05-.28l-.14-.08,1.35-1.36h1.92Zm.04-2.62a2.921,2.921,0,0,0-4.13-.02,2.921,2.921,0,0,0-.03,4.13l.02.02.01.01A2.924,2.924,0,0,0,15.61,4.5m-1.68-.03.16.05A2.106,2.106,0,0,1,15.57,6l.05.16H13.93ZM11.69,7.61a2.04,2.04,0,0,1-.28-1.05,2.118,2.118,0,0,1,1.56-2.04l.16-.04V6.4L11.77,7.75Zm3.88-.49a2.03,2.03,0,0,1-.21.5,2.085,2.085,0,0,1-1.83,1.06,2.04,2.04,0,0,1-1.05-.28l-.14-.08,1.35-1.36h1.92Zm-7.36-.4a.4.4,0,0,0-.4.4V8.96H6.37V5.44a.4.4,0,1,0-.8,0V8.96H4.13V3.76a.4.4,0,0,0-.8,0v5.6a.4.4,0,0,0,.4.4H8.21a.4.4,0,0,0,.4-.4V7.12a.4.4,0,0,0-.4-.4" transform="translate(-1.05)" fill="#fff"/>
</svg>
