<svg xmlns="http://www.w3.org/2000/svg" width="22.232" height="22.232" viewBox="0 0 22.232 22.232">
  <path id="Union_77" data-name="Union 77" d="M8.411,19.453v-.07a.6.6,0,0,0-.394-.543c-.018-.007-.036-.013-.054-.022a.592.592,0,0,0-.243-.051.6.6,0,0,0-.419.168l-.051.052a2.78,2.78,0,0,1-3.932-3.933L3.37,15a.6.6,0,0,0,.118-.661s0-.006,0-.009a.6.6,0,0,0-.551-.364H2.779a2.779,2.779,0,0,1,0-5.558h.07a.6.6,0,0,0,.543-.394c.007-.018.014-.036.023-.054A.6.6,0,0,0,3.3,7.3l-.052-.051A2.78,2.78,0,1,1,7.176,3.319l.051.051a.6.6,0,0,0,.419.169.593.593,0,0,0,.243-.052.976.976,0,0,1,.185-.059.6.6,0,0,0,.263-.5V2.779a2.779,2.779,0,0,1,5.558,0v.083a.6.6,0,0,0,.364.548l.009,0a.612.612,0,0,0,.243.051.6.6,0,0,0,.419-.168l.052-.052a2.78,2.78,0,1,1,3.931,3.932l-.051.051a.6.6,0,0,0-.118.661.92.92,0,0,1,.059.185.6.6,0,0,0,.5.263h.153a2.779,2.779,0,1,1,0,5.558h-.083a.6.6,0,0,0-.547.364.1.1,0,0,1,0,.009.6.6,0,0,0,.118.661l.052.052a2.78,2.78,0,1,1-3.932,3.931L15,18.862a.6.6,0,0,0-.661-.118l-.009,0a.6.6,0,0,0-.364.551v.153a2.779,2.779,0,1,1-5.558,0Zm.273-2.341a2.441,2.441,0,0,1,1.579,2.236v.105a.926.926,0,1,0,1.852,0V19.3A2.465,2.465,0,0,1,16.3,17.54l.007.008.056.055a.927.927,0,1,0,1.312-1.311l-.056-.056-.008-.008a2.468,2.468,0,0,1,1.752-4.187h.087a.926.926,0,0,0,0-1.852h-.158A2.455,2.455,0,0,1,17.044,8.7a.923.923,0,0,1-.067-.244,2.442,2.442,0,0,1,.562-2.529l.008-.008.055-.055a.927.927,0,1,0-1.311-1.312l-.056.056-.008.008a2.468,2.468,0,0,1-4.187-1.752V2.779a.926.926,0,1,0-1.852,0v.158A2.453,2.453,0,0,1,8.7,5.186a.967.967,0,0,1-.244.068,2.459,2.459,0,0,1-2.529-.562l-.008-.008-.055-.056A.928.928,0,1,0,4.554,5.94L4.61,6,4.618,6a2.443,2.443,0,0,1,.5,2.68,2.443,2.443,0,0,1-2.237,1.58H2.779a.926.926,0,0,0,0,1.852h.158A2.468,2.468,0,0,1,4.692,16.3l-.008.007-.056.056A.928.928,0,1,0,5.94,17.678L6,17.622,6,17.614a2.454,2.454,0,0,1,2.681-.5Zm-1.274-6a3.705,3.705,0,1,1,3.7,3.706A3.71,3.71,0,0,1,7.411,11.116Zm1.852,0a1.853,1.853,0,1,0,1.852-1.852A1.855,1.855,0,0,0,9.263,11.116Z" fill="#fff"/>
</svg>
