<svg xmlns="http://www.w3.org/2000/svg" width="19.75" height="20.365" viewBox="0 0 19.75 20.365">
  <path id="Path_38685" data-name="Path 38685" d="M4,20.364a.912.912,0,0,0-.124-.035h-.01a4.582,4.582,0,0,1-2.749-1.352A3.9,3.9,0,0,1,.008,16.3C0,12.054,0,8.737.008,4.063A4.19,4.19,0,0,1,3.3.136c.154-.037.315-.067.472-.1L3.987,0H14.265L14.5.046c.172.034.35.069.521.111a4.265,4.265,0,0,1,1.858.987c.456.413,1.053.959,1.634,1.522a3.981,3.981,0,0,1,1.234,3.2.747.747,0,0,1-.749.681l-.676.006c-.5,0-1.014.009-1.521.009-.631,0-1.156-.007-1.653-.021a2.506,2.506,0,0,1-2.429-2.367c-.007-.584-.005-1.158,0-1.765q0-.408,0-.824v-.1H4.5A2.754,2.754,0,0,0,1.592,4.188c0,4.353,0,7.635,0,11.988A2.753,2.753,0,0,0,4.5,18.881H15.236a2.734,2.734,0,0,0,2.922-2.717c0-1.119,0-2.044,0-2.941,0-1.215,0-2.376,0-3.891a1.242,1.242,0,0,1,.039-.351.772.772,0,0,1,.751-.527c.025,0,.05,0,.075,0a.773.773,0,0,1,.718.68c0,.036,0,.074,0,.113v.027c0,.859,0,1.607,0,2.316,0,1.508,0,2.811,0,4.621A4.174,4.174,0,0,1,16.3,20.261c-.122.027-.248.05-.37.073l-.165.031ZM14.306,1.657c0,.254,0,.507,0,.758,0,.6-.008,1.213.011,1.816a.947.947,0,0,0,.984.84c.12,0,.248,0,.4,0h2.4l-.024-.123a2.233,2.233,0,0,0-.632-1.164c-.575-.557-1.169-1.11-1.766-1.645a2.5,2.5,0,0,0-1.244-.588l-.134-.023ZM4.513,16.362a.961.961,0,0,1-.659-.228.68.68,0,0,1-.219-.52.784.784,0,0,1,.875-.733H5.45v-.969q0-.634,0-1.267a.794.794,0,1,1,1.587,0q0,.634,0,1.267c0,.211,0,.956,0,.956H9.081v-1.3c0-.878,0-1.786,0-2.679a.744.744,0,0,1,.614-.726.829.829,0,0,1,.189-.022.77.77,0,0,1,.678.388,1,1,0,0,1,.1.44c.007.9.006,1.808.005,2.69,0,.287,0,1.208,0,1.208h2.043v-.362q0-2.641,0-5.282V9.22a.711.711,0,0,1,.461-.693l.006,0a.793.793,0,0,1,.335-.074.768.768,0,0,1,.507.186l0,0a.74.74,0,0,1,.274.637c0,1.731,0,3.487,0,5.219v.384h.933a.972.972,0,0,1,.664.23.678.678,0,0,1,.218.516.779.779,0,0,1-.871.736H4.513M6.237,6.555H4.492a.929.929,0,0,1-.635-.227.683.683,0,0,1-.221-.52.776.776,0,0,1,.849-.734H8a.927.927,0,0,1,.635.225.684.684,0,0,1,.222.522A.778.778,0,0,1,8,6.555H6.237" transform="translate(0)" fill="#fff"/>
</svg>
