<svg xmlns="http://www.w3.org/2000/svg" width="20.749" height="21.364" viewBox="0 0 20.749 21.364">
  <path id="Union_91" data-name="Union 91" d="M2.68,20.364h0a.316.316,0,0,0-.092-.034A2.935,2.935,0,0,1,.3,18.578a3.832,3.832,0,0,1-.213-.662c-.026-.1-.053-.2-.083-.307V2.762a.337.337,0,0,0,.033-.1A3.007,3.007,0,0,1,1.732.305a3.561,3.561,0,0,1,.642-.22c.1-.027.2-.055.3-.085h14.4a.314.314,0,0,0,.092.034,2.935,2.935,0,0,1,2.29,1.752,3.831,3.831,0,0,1,.213.662c.026.1.053.2.083.307V13.37c-.02.037-.038.074-.056.11a1.008,1.008,0,0,1-.149.245.591.591,0,0,1-.439.2.693.693,0,0,1-.245-.048.655.655,0,0,1-.433-.579,1.415,1.415,0,0,1-.006-.184c0-.021,0-.041,0-.062V11.45q0-4.116,0-8.232a1.7,1.7,0,0,0-.948-1.66,1.832,1.832,0,0,0-.782-.182c-2.523-.005-5.165-.008-8.078-.008l-5.56,0A1.7,1.7,0,0,0,1.329,3.16c0,4.621,0,9.345,0,14.043a1.693,1.693,0,0,0,1.743,1.792l6.773,0,6.826,0a1.7,1.7,0,0,0,1.75-1.717.7.7,0,0,1,.685-.7.585.585,0,0,1,.426.193,1.024,1.024,0,0,1,.158.253c.019.038.038.076.059.114V17.6a.339.339,0,0,0-.033.095,3.007,3.007,0,0,1-1.7,2.361,3.56,3.56,0,0,1-.642.22c-.1.027-.2.055-.3.086Zm1.745-3.149a1.419,1.419,0,0,1-1.3-1.421c-.01-.481-.018-1.049,0-1.609A1.434,1.434,0,0,1,4.583,12.75c.263,0,.524-.007.775-.007s.513,0,.76.008A1.443,1.443,0,0,1,7.57,14.212c.005.178,0,.36,0,.536,0,.083,0,.166,0,.249v.112h.016c0,.083-.005.166-.007.247a4.3,4.3,0,0,1-.064.772,1.372,1.372,0,0,1-1.352,1.1c-.212.013-.433.019-.674.019C5.1,17.247,4.717,17.23,4.425,17.215Zm.035-1.33H6.234V14.1H4.46Zm11.435-.215H10.061a.671.671,0,0,1-.577-1.044.666.666,0,0,1,.6-.3H14.7l1.247,0a.67.67,0,0,1,.562,1.05.668.668,0,0,1-.606.291ZM9.861,11.052H4.672a1.469,1.469,0,0,1-1.262-.6,1.316,1.316,0,0,1-.278-.769q0-.133-.006-.265c-.011-.493-.022-1,.01-1.5A1.429,1.429,0,0,1,4.6,6.559c.225,0,.465,0,.757,0h9.717a1.454,1.454,0,0,1,1.495,1.086l0,.006a.477.477,0,0,1,.024.116c0,.2.008.4.013.592A13.41,13.41,0,0,1,16.6,9.743a1.414,1.414,0,0,1-1.513,1.308l-2.168,0ZM4.46,9.7H15.291V7.912H4.46ZM3.879,4.863a.679.679,0,0,1-.7-.4.653.653,0,0,1,.029-.6.665.665,0,0,1,.521-.335c.04,0,.083,0,.122,0h12a.706.706,0,0,1,.727.438.671.671,0,0,1-.06.584.665.665,0,0,1-.5.313,1.314,1.314,0,0,1-.134.005H6.8l-2.921,0Z" transform="translate(0.5 0.5)" fill="#fff" stroke="rgba(0,0,0,0)" stroke-width="1"/>
</svg>
