<svg xmlns="http://www.w3.org/2000/svg" width="22.749" height="24.992" viewBox="0 0 22.749 24.992">
  <path id="Union_90" data-name="Union 90" d="M8.833,23.992l-.049-.5q-.078-.8-.157-1.6c-.008-.078-.018-.157-.028-.235a3.784,3.784,0,0,1-.039-.413.425.425,0,0,0-.327-.444,7.715,7.715,0,0,1-.909-.378.541.541,0,0,0-.239-.065.463.463,0,0,0-.3.126c-.513.426-1.042.853-1.553,1.265l-.515.416-.065.051L1.782,19.336c.032-.042.067-.087.1-.133l.394-.49c.4-.5.82-1.021,1.238-1.525a.431.431,0,0,0,.057-.522,7.524,7.524,0,0,1-.365-.889.5.5,0,0,0-.493-.368c-.671-.064-1.353-.139-2.012-.21l-.669-.073C.006,15.115,0,15.106,0,15.044c0-1.325,0-2.2,0-2.506H.292L.26,12.388a.648.648,0,0,1-.014-.114c0-.037,0-.074,0-.085A3.926,3.926,0,0,1,2.954,8.558,3.89,3.89,0,0,1,7.214,9.9a.616.616,0,0,1-.1.876.6.6,0,0,1-.37.13.617.617,0,0,1-.483-.243A2.658,2.658,0,0,0,4.114,9.607H4.027a2.669,2.669,0,0,0-2.553,2.51c0,.026,0,.052,0,.078,0,.043,0,.083-.005.121a.666.666,0,0,1-.011.069l-.031.148,12.565-.014-.09-.178a1.876,1.876,0,0,1-.132-1.135,3.907,3.907,0,0,1,3.705-3.381h.085a3.882,3.882,0,0,1,3.892,3.228,2.025,2.025,0,0,1-.1,1.282l-.087.177h.486c0,.3,0,1.147,0,2.47,0,.071-.02.145-.173.161l-.513.056-1.036.112-.032,0c-.348.037-.707.075-1.06.106a.389.389,0,0,0-.365.285c-.12.325-.261.663-.418,1.006a.384.384,0,0,0,.065.455c.42.512.841,1.036,1.25,1.543l.382.474.108.136L17.083,22.2c-.146-.117-.3-.236-.444-.351-.423-.333-.86-.677-1.266-1.048a1.25,1.25,0,0,0-.8-.405.94.94,0,0,0-.588.236.3.3,0,0,1-.08.03c-.023.007-.046.013-.068.021-.591.217-.622.258-.682.869l0,.018c-.044.45-.093.907-.14,1.349q-.045.421-.089.843c-.008.078-.011.156-.013.231ZM7.1,18.9a6.943,6.943,0,0,0,2.109.923.964.964,0,0,1,.388.14.914.914,0,0,1,.089.394c.012.1.023.194.033.29l.226,2.105H11.8l.082-.779c.064-.608.13-1.236.191-1.852.016-.168.032-.206.159-.232a7.1,7.1,0,0,0,2.507-1.047.164.164,0,0,1,.075-.031c.022,0,.052.017.1.056.3.246.6.491.895.729l.265.214.606.489.313.252,1.316-1.32-1.752-2.174a7.837,7.837,0,0,0,1.13-2.726l2.826-.307-.024-.295H14.9l-.02.1a4.1,4.1,0,0,1-1.322,2.328,3.724,3.724,0,0,1-2.5,1.007A4.08,4.08,0,0,1,6.84,13.824l-.025-.089H1.25l-.016.289,2.824.306c.014.046.027.089.036.13A7.216,7.216,0,0,0,5.1,16.907c.081.124.077.174-.023.294-.4.478-.79.968-1.17,1.441l-.416.518-.069.086,1.312,1.319.086-.069.523-.422c.461-.371.938-.755,1.4-1.144a.322.322,0,0,1,.19-.1A.324.324,0,0,1,7.1,18.9Zm1.067-5.034a2.828,2.828,0,0,0,2.7,2.087l.105,0a2.752,2.752,0,0,0,2.591-2.091l.014-.135H8.15Zm9.666-1.43c.073,0,.146,0,.218,0,.1,0,.188,0,.268-.011a4.487,4.487,0,0,0,1.658-.416.474.474,0,0,0,.294-.519,2.677,2.677,0,0,0-2.455-2.432c-.054,0-.108,0-.161,0a2.64,2.64,0,0,0-2.651,2.179c-.1.536-.029.676.477.88a5,5,0,0,0,1.91.32l.231,0C17.7,12.43,17.767,12.431,17.837,12.433Zm-9.8-2.676a3.232,3.232,0,0,1-.418-.2,1.608,1.608,0,0,1-.887-1.773,3.9,3.9,0,0,1,3.608-3.46c.063,0,.127,0,.19,0a3.865,3.865,0,0,1,3.874,3.141,4.7,4.7,0,0,1,.068.555,1.489,1.489,0,0,1-.757,1.452,4.711,4.711,0,0,1-2.051.642c-.241.029-.491.043-.732.056l-.331.02A7.435,7.435,0,0,1,8.041,9.758Zm2.727-.824.183,0c.085,0,.156,0,.222-.008a4.924,4.924,0,0,0,1.753-.407.52.52,0,0,0,.322-.6,2.685,2.685,0,0,0-2.532-2.372l-.1,0A2.638,2.638,0,0,0,7.986,7.74c-.1.544-.031.666.487.869a5.208,5.208,0,0,0,1.954.324h.163ZM4.124,7.959a1.95,1.95,0,0,1,0-3.9h.015A1.955,1.955,0,0,1,5.5,7.39a1.93,1.93,0,0,1-1.377.569ZM3.405,6.01a.711.711,0,0,0,.207.507.719.719,0,0,0,.512.214.711.711,0,0,0,.721-.715.722.722,0,0,0-.715-.727h0A.734.734,0,0,0,3.405,6.01Zm14.217,1.4a1.95,1.95,0,0,1-1.374-3.327,1.951,1.951,0,0,1,3.323,1.39,1.956,1.956,0,0,1-1.944,1.937Zm-.717-1.957a.721.721,0,0,0,.2.517.709.709,0,0,0,.5.212h.008a.718.718,0,0,0,.726-.707.734.734,0,0,0-.712-.735h-.014A.721.721,0,0,0,16.905,5.449ZM10.542,3.9A1.951,1.951,0,0,1,8.659,2.148a1.972,1.972,0,0,1,1.519-2.1c.045-.01.087-.023.128-.035L10.343,0h.517l.061.017.165.046a1.95,1.95,0,0,1-.5,3.838ZM9.88,1.944a.721.721,0,0,0,.711.728H10.6a.724.724,0,0,0,.722-.712.726.726,0,0,0-.713-.731H10.6A.722.722,0,0,0,9.88,1.944Z" transform="translate(0.5 0.5)" fill="#fff" stroke="rgba(0,0,0,0)" stroke-width="1"/>
</svg>
