<svg xmlns="http://www.w3.org/2000/svg" width="17.2" height="17.19" viewBox="0 0 17.2 17.19">
  <path id="Path_51610" data-name="Path 51610" d="M18.09,94.56a1.359,1.359,0,0,0-1.92.07l-.74.79V91.59l.32.1a1.362,1.362,0,0,0,1.23-2.37l-1.55-1.24V85.24a.333.333,0,0,0-.33-.33H13.04a.333.333,0,0,0-.33.33v.67l-.87-.7a1.354,1.354,0,0,0-1.7,0L4.99,89.32a1.364,1.364,0,0,0,1.23,2.37l.32-.09v2.49l-.18.06a2.949,2.949,0,0,0-.84.4l-.34.22-.05-.4a1.353,1.353,0,0,0-1.35-1.2H1.65a.333.333,0,0,0-.33.33v8.27a.333.333,0,0,0,.33.33H3.79a1.34,1.34,0,0,0,1.26-.87l.06-.16h7.94a3.472,3.472,0,0,0,2.73-1.4l2.47-3.3a1.366,1.366,0,0,0-.16-1.81M4.48,100.74a.7.7,0,0,1-.7.7H1.98V93.83h1.8a.7.7,0,0,1,.7.7Zm8.89-15.18h1.4v1.99l-1.4-1.12Zm-7.1,5.37a.753.753,0,0,1-.44.15.7.7,0,0,1-.43-1.25l5.14-4.11a.706.706,0,0,1,.88,0l5.14,4.11a.716.716,0,0,1,.27.55.7.7,0,0,1-1.14.54l-4.5-3.59a.316.316,0,0,0-.42,0Zm8.5.1v4.92l-.48.1a1.342,1.342,0,0,0-1.24-.82H9.99l-.07-.1a2.606,2.606,0,0,0-.58-.52,3.416,3.416,0,0,0-1.9-.62H7.2V91.03L10.98,88Zm2.95,4.95-2.47,3.29a2.819,2.819,0,0,1-2.2,1.14H5.14v-4.7l.42-.37a2.768,2.768,0,0,1,3.64-.01l.23.2a.9.9,0,0,1,.1.09,1.067,1.067,0,0,0,.48.27l3.03-.01a.7.7,0,0,1,0,1.4H8.93a.327.327,0,0,0-.33.33.358.358,0,0,0,.09.24.341.341,0,0,0,.24.09h4.46a1.387,1.387,0,0,0,.99-.43l2.27-2.43a.709.709,0,0,1,1-.01.651.651,0,0,1,.21.49.706.706,0,0,1-.14.42" transform="translate(-1.32 -84.91)" fill="#fff"/>
</svg>
