<svg xmlns="http://www.w3.org/2000/svg" width="16.963" height="17.22" viewBox="0 0 16.963 17.22">
  <path id="Path_51604" data-name="Path 51604" d="M14.32,462.8H5.43a.284.284,0,0,0-.27.28.258.258,0,0,0,.07.21.3.3,0,0,0,.2.1h8.9a.284.284,0,0,0,.27-.28.292.292,0,0,0-.28-.31m.21,1.98a.288.288,0,0,0-.21-.09H9.88a.282.282,0,0,0-.24.09.278.278,0,0,0-.08.21.281.281,0,0,0,.1.21.323.323,0,0,0,.21.08h4.46a.287.287,0,0,0,.27-.29.27.27,0,0,0-.07-.21m-.2,1.79H12.01a.29.29,0,0,0-.29.29.3.3,0,0,0,.29.3h2.32a.3.3,0,0,0,.29-.3.29.29,0,0,0-.29-.29m.2-1.79a.288.288,0,0,0-.21-.09H9.88a.282.282,0,0,0-.24.09.278.278,0,0,0-.08.21.281.281,0,0,0,.1.21.323.323,0,0,0,.21.08h4.46a.287.287,0,0,0,.27-.29.27.27,0,0,0-.07-.21m-.21-1.98H5.43a.284.284,0,0,0-.27.28.258.258,0,0,0,.07.21.3.3,0,0,0,.2.1h8.9a.284.284,0,0,0,.27-.28.292.292,0,0,0-.28-.31m.01,3.77H12.01a.29.29,0,0,0-.29.29.3.3,0,0,0,.29.3h2.32a.3.3,0,0,0,.29-.3.29.29,0,0,0-.29-.29m0,0H12.01a.29.29,0,0,0-.29.29.3.3,0,0,0,.29.3h2.32a.3.3,0,0,0,.29-.3.29.29,0,0,0-.29-.29m-.01-3.77H5.43a.284.284,0,0,0-.27.28.258.258,0,0,0,.07.21.3.3,0,0,0,.2.1h8.9a.284.284,0,0,0,.27-.28.292.292,0,0,0-.28-.31m.21,1.98a.288.288,0,0,0-.21-.09H9.88a.282.282,0,0,0-.24.09.278.278,0,0,0-.08.21.281.281,0,0,0,.1.21.323.323,0,0,0,.21.08h4.46a.287.287,0,0,0,.27-.29.27.27,0,0,0-.07-.21m0,0a.288.288,0,0,0-.21-.09H9.88a.282.282,0,0,0-.24.09.278.278,0,0,0-.08.21.281.281,0,0,0,.1.21.323.323,0,0,0,.21.08h4.46a.287.287,0,0,0,.27-.29.27.27,0,0,0-.07-.21m-.21-1.98H5.43a.284.284,0,0,0-.27.28.258.258,0,0,0,.07.21.3.3,0,0,0,.2.1h8.9a.284.284,0,0,0,.27-.28.292.292,0,0,0-.28-.31m.01,3.77H12.01a.29.29,0,0,0-.29.29.3.3,0,0,0,.29.3h2.32a.3.3,0,0,0,.29-.3.29.29,0,0,0-.29-.29m0,0H12.01a.29.29,0,0,0-.29.29.3.3,0,0,0,.29.3h2.32a.3.3,0,0,0,.29-.3.29.29,0,0,0-.29-.29m-.01-3.77H5.43a.284.284,0,0,0-.27.28.258.258,0,0,0,.07.21.3.3,0,0,0,.2.1h8.9a.284.284,0,0,0,.27-.28.292.292,0,0,0-.28-.31m.21,1.98a.288.288,0,0,0-.21-.09H9.88a.282.282,0,0,0-.24.09.278.278,0,0,0-.08.21.281.281,0,0,0,.1.21.323.323,0,0,0,.21.08h4.46a.287.287,0,0,0,.27-.29.27.27,0,0,0-.07-.21m0,0a.288.288,0,0,0-.21-.09H9.88a.282.282,0,0,0-.24.09.278.278,0,0,0-.08.21.281.281,0,0,0,.1.21.323.323,0,0,0,.21.08h4.46a.287.287,0,0,0,.27-.29.27.27,0,0,0-.07-.21m-.21-1.98H5.43a.284.284,0,0,0-.27.28.258.258,0,0,0,.07.21.3.3,0,0,0,.2.1h8.9a.284.284,0,0,0,.27-.28.292.292,0,0,0-.28-.31m.01,3.77H12.01a.29.29,0,0,0-.29.29.3.3,0,0,0,.29.3h2.32a.3.3,0,0,0,.29-.3.29.29,0,0,0-.29-.29m0,0H12.01a.29.29,0,0,0-.29.29.3.3,0,0,0,.29.3h2.32a.3.3,0,0,0,.29-.3.29.29,0,0,0-.29-.29m-.01-3.77H5.43a.284.284,0,0,0-.27.28.258.258,0,0,0,.07.21.3.3,0,0,0,.2.1h8.9a.284.284,0,0,0,.27-.28.292.292,0,0,0-.28-.31m.21,1.98a.288.288,0,0,0-.21-.09H9.88a.282.282,0,0,0-.24.09.278.278,0,0,0-.08.21.281.281,0,0,0,.1.21.323.323,0,0,0,.21.08h4.46a.287.287,0,0,0,.27-.29.27.27,0,0,0-.07-.21m.07.21a.27.27,0,0,0-.07-.21.288.288,0,0,0-.21-.09H9.88a.282.282,0,0,0-.24.09.278.278,0,0,0-.08.21.281.281,0,0,0,.1.21.323.323,0,0,0,.21.08h4.46a.287.287,0,0,0,.27-.29m0-1.88a.292.292,0,0,0-.28-.31H5.43a.284.284,0,0,0-.27.28.258.258,0,0,0,.07.21.3.3,0,0,0,.2.1h8.9a.284.284,0,0,0,.27-.28m-.27,3.46H12.01a.29.29,0,0,0-.29.29.3.3,0,0,0,.29.3h2.32a.3.3,0,0,0,.29-.3.29.29,0,0,0-.29-.29m3.64,2.21a.959.959,0,0,0-.72-.31h-.8v-6.88a.691.691,0,0,0-.69-.69H4a.691.691,0,0,0-.69.69v4.25H1.99a.634.634,0,0,0-.47.2.8.8,0,0,0-.2.56l.6,10.48a1.084,1.084,0,0,0,1.06,1.04H16.77a1.084,1.084,0,0,0,1.06-1.04l.45-7.45a1.126,1.126,0,0,0-.31-.85M3.9,461.49H15.86v6.98H8.92l-.7-1.91a1.028,1.028,0,0,0-.95-.72H3.9Zm13.34,15.57a.492.492,0,0,1-.44.47H2.97a.506.506,0,0,1-.47-.48l-.59-10.61H7.28a.461.461,0,0,1,.39.33l.77,2.1a.3.3,0,0,0,.28.19h8.53a.375.375,0,0,1,.3.14.557.557,0,0,1,.14.41ZM14.6,464.99a.27.27,0,0,0-.07-.21.288.288,0,0,0-.21-.09H9.88a.282.282,0,0,0-.24.09.278.278,0,0,0-.08.21.281.281,0,0,0,.1.21.323.323,0,0,0,.21.08h4.46a.287.287,0,0,0,.27-.29m0-1.88a.292.292,0,0,0-.28-.31H5.43a.284.284,0,0,0-.27.28.258.258,0,0,0,.07.21.3.3,0,0,0,.2.1h8.9a.284.284,0,0,0,.27-.28m-.27,3.46H12.01a.29.29,0,0,0-.29.29.3.3,0,0,0,.29.3h2.32a.3.3,0,0,0,.29-.3.29.29,0,0,0-.29-.29m0,0H12.01a.29.29,0,0,0-.29.29.3.3,0,0,0,.29.3h2.32a.3.3,0,0,0,.29-.3.29.29,0,0,0-.29-.29m-.01-3.77H5.43a.284.284,0,0,0-.27.28.258.258,0,0,0,.07.21.3.3,0,0,0,.2.1h8.9a.284.284,0,0,0,.27-.28.292.292,0,0,0-.28-.31m.21,1.98a.288.288,0,0,0-.21-.09H9.88a.282.282,0,0,0-.24.09.278.278,0,0,0-.08.21.281.281,0,0,0,.1.21.323.323,0,0,0,.21.08h4.46a.287.287,0,0,0,.27-.29.27.27,0,0,0-.07-.21m0,0a.288.288,0,0,0-.21-.09H9.88a.282.282,0,0,0-.24.09.278.278,0,0,0-.08.21.281.281,0,0,0,.1.21.323.323,0,0,0,.21.08h4.46a.287.287,0,0,0,.27-.29.27.27,0,0,0-.07-.21m-.21-1.98H5.43a.284.284,0,0,0-.27.28.258.258,0,0,0,.07.21.3.3,0,0,0,.2.1h8.9a.284.284,0,0,0,.27-.28.292.292,0,0,0-.28-.31m.01,3.77H12.01a.29.29,0,0,0-.29.29.3.3,0,0,0,.29.3h2.32a.3.3,0,0,0,.29-.3.29.29,0,0,0-.29-.29m0,0H12.01a.29.29,0,0,0-.29.29.3.3,0,0,0,.29.3h2.32a.3.3,0,0,0,.29-.3.29.29,0,0,0-.29-.29m-.01-3.77H5.43a.284.284,0,0,0-.27.28.258.258,0,0,0,.07.21.3.3,0,0,0,.2.1h8.9a.284.284,0,0,0,.27-.28.292.292,0,0,0-.28-.31m.21,1.98a.288.288,0,0,0-.21-.09H9.88a.282.282,0,0,0-.24.09.278.278,0,0,0-.08.21.281.281,0,0,0,.1.21.323.323,0,0,0,.21.08h4.46a.287.287,0,0,0,.27-.29.27.27,0,0,0-.07-.21m0,0a.288.288,0,0,0-.21-.09H9.88a.282.282,0,0,0-.24.09.278.278,0,0,0-.08.21.281.281,0,0,0,.1.21.323.323,0,0,0,.21.08h4.46a.287.287,0,0,0,.27-.29.27.27,0,0,0-.07-.21m-.21-1.98H5.43a.284.284,0,0,0-.27.28.258.258,0,0,0,.07.21.3.3,0,0,0,.2.1h8.9a.284.284,0,0,0,.27-.28.292.292,0,0,0-.28-.31m.01,3.77H12.01a.29.29,0,0,0-.29.29.3.3,0,0,0,.29.3h2.32a.3.3,0,0,0,.29-.3.29.29,0,0,0-.29-.29m0,0H12.01a.29.29,0,0,0-.29.29.3.3,0,0,0,.29.3h2.32a.3.3,0,0,0,.29-.3.29.29,0,0,0-.29-.29m-.01-3.77H5.43a.284.284,0,0,0-.27.28.258.258,0,0,0,.07.21.3.3,0,0,0,.2.1h8.9a.284.284,0,0,0,.27-.28.292.292,0,0,0-.28-.31m.21,1.98a.288.288,0,0,0-.21-.09H9.88a.282.282,0,0,0-.24.09.278.278,0,0,0-.08.21.281.281,0,0,0,.1.21.323.323,0,0,0,.21.08h4.46a.287.287,0,0,0,.27-.29.27.27,0,0,0-.07-.21m0,0a.288.288,0,0,0-.21-.09H9.88a.282.282,0,0,0-.24.09.278.278,0,0,0-.08.21.281.281,0,0,0,.1.21.323.323,0,0,0,.21.08h4.46a.287.287,0,0,0,.27-.29.27.27,0,0,0-.07-.21m-.21-1.98H5.43a.284.284,0,0,0-.27.28.258.258,0,0,0,.07.21.3.3,0,0,0,.2.1h8.9a.284.284,0,0,0,.27-.28.292.292,0,0,0-.28-.31m.01,3.77H12.01a.29.29,0,0,0-.29.29.3.3,0,0,0,.29.3h2.32a.3.3,0,0,0,.29-.3.29.29,0,0,0-.29-.29" transform="translate(-1.319 -460.9)" fill="#fff"/>
</svg>
