<svg xmlns="http://www.w3.org/2000/svg" width="16.1" height="17.1" viewBox="0 0 16.1 17.1">
  <path id="Path_51609" data-name="Path 51609" d="M8.27,128.17H5.76a.316.316,0,0,0-.32.32V131a.314.314,0,0,0,.32.31H8.27a.32.32,0,0,0,.32-.31v-2.52a.32.32,0,0,0-.32-.31m-.32,2.51H6.07V128.8H7.95Zm5.03-2.51H10.47a.314.314,0,0,0-.31.32V131a.312.312,0,0,0,.31.31h2.51a.314.314,0,0,0,.32-.31v-2.52a.314.314,0,0,0-.32-.31m-.31,2.51H10.79V128.8h1.88Zm-4.4,2.26H5.76a.314.314,0,0,0-.32.31v2.52a.314.314,0,0,0,.32.31H8.27a.322.322,0,0,0,.32-.32v-2.51a.32.32,0,0,0-.32-.31m-.32,2.51H6.07v-1.88H7.95Zm5.03-2.51H10.47a.312.312,0,0,0-.31.31v2.52a.312.312,0,0,0,.31.31h2.51a.314.314,0,0,0,.32-.31v-2.52a.314.314,0,0,0-.32-.31m-.31,2.51H10.79v-1.88h1.88Zm.31-2.51H10.47a.312.312,0,0,0-.31.31v2.52a.312.312,0,0,0,.31.31h2.51a.314.314,0,0,0,.32-.31v-2.52a.314.314,0,0,0-.32-.31m-.31,2.51H10.79v-1.88h1.88Zm.31-7.28H10.47a.314.314,0,0,0-.31.32V131a.312.312,0,0,0,.31.31h2.51a.314.314,0,0,0,.32-.31v-2.52a.314.314,0,0,0-.32-.31m-.31,2.51H10.79V128.8h1.88Zm-4.4,2.26H5.76a.314.314,0,0,0-.32.31v2.52a.314.314,0,0,0,.32.31H8.27a.322.322,0,0,0,.32-.32v-2.51a.32.32,0,0,0-.32-.31m-.32,2.51H6.07v-1.88H7.95Zm.32-7.28H5.76a.316.316,0,0,0-.32.32V131a.314.314,0,0,0,.32.31H8.27a.32.32,0,0,0,.32-.31v-2.52a.32.32,0,0,0-.32-.31m-.32,2.51H6.07V128.8H7.95Zm.32-2.51H5.76a.316.316,0,0,0-.32.32V131a.314.314,0,0,0,.32.31H8.27a.32.32,0,0,0,.32-.31v-2.52a.32.32,0,0,0-.32-.31m-.32,2.51H6.07V128.8H7.95Zm.32,2.26H5.76a.314.314,0,0,0-.32.31v2.52a.314.314,0,0,0,.32.31H8.27a.322.322,0,0,0,.32-.32v-2.51a.32.32,0,0,0-.32-.31m-.32,2.51H6.07v-1.88H7.95Zm5.03-7.28H10.47a.314.314,0,0,0-.31.32V131a.312.312,0,0,0,.31.31h2.51a.314.314,0,0,0,.32-.31v-2.52a.314.314,0,0,0-.32-.31m-.31,2.51H10.79V128.8h1.88Zm.31,2.26H10.47a.312.312,0,0,0-.31.31v2.52a.312.312,0,0,0,.31.31h2.51a.314.314,0,0,0,.32-.31v-2.52a.314.314,0,0,0-.32-.31m-.31,2.51H10.79v-1.88h1.88Zm.31-2.51H10.47a.312.312,0,0,0-.31.31v2.52a.312.312,0,0,0,.31.31h2.51a.314.314,0,0,0,.32-.31v-2.52a.314.314,0,0,0-.32-.31m-.31,2.51H10.79v-1.88h1.88Zm.31-7.28H10.47a.314.314,0,0,0-.31.32V131a.312.312,0,0,0,.31.31h2.51a.314.314,0,0,0,.32-.31v-2.52a.314.314,0,0,0-.32-.31m-.31,2.51H10.79V128.8h1.88Zm-4.4,2.26H5.76a.314.314,0,0,0-.32.31v2.52a.314.314,0,0,0,.32.31H8.27a.322.322,0,0,0,.32-.32v-2.51a.32.32,0,0,0-.32-.31m-.32,2.51H6.07v-1.88H7.95Zm.32-7.28H5.76a.316.316,0,0,0-.32.32V131a.314.314,0,0,0,.32.31H8.27a.32.32,0,0,0,.32-.31v-2.52a.32.32,0,0,0-.32-.31m-.32,2.51H6.07V128.8H7.95Zm.32-2.51H5.76a.316.316,0,0,0-.32.32V131a.314.314,0,0,0,.32.31H8.27a.32.32,0,0,0,.32-.31v-2.52a.32.32,0,0,0-.32-.31m-.32,2.51H6.07V128.8H7.95Zm.32,2.26H5.76a.314.314,0,0,0-.32.31v2.52a.314.314,0,0,0,.32.31H8.27a.322.322,0,0,0,.32-.32v-2.51a.32.32,0,0,0-.32-.31m-.32,2.51H6.07v-1.88H7.95Zm5.03-7.28H10.47a.314.314,0,0,0-.31.32V131a.312.312,0,0,0,.31.31h2.51a.314.314,0,0,0,.32-.31v-2.52a.314.314,0,0,0-.32-.31m-.31,2.51H10.79V128.8h1.88Zm.31,2.26H10.47a.312.312,0,0,0-.31.31v2.52a.312.312,0,0,0,.31.31h2.51a.314.314,0,0,0,.32-.31v-2.52a.314.314,0,0,0-.32-.31m-.31,2.51H10.79v-1.88h1.88Zm.31-2.51H10.47a.312.312,0,0,0-.31.31v2.52a.312.312,0,0,0,.31.31h2.51a.314.314,0,0,0,.32-.31v-2.52a.314.314,0,0,0-.32-.31m-.31,2.51H10.79v-1.88h1.88Zm.31-7.28H10.47a.314.314,0,0,0-.31.32V131a.312.312,0,0,0,.31.31h2.51a.314.314,0,0,0,.32-.31v-2.52a.314.314,0,0,0-.32-.31m-.31,2.51H10.79V128.8h1.88Zm-4.4,2.26H5.76a.314.314,0,0,0-.32.31v2.52a.314.314,0,0,0,.32.31H8.27a.322.322,0,0,0,.32-.32v-2.51a.32.32,0,0,0-.32-.31m-.32,2.51H6.07v-1.88H7.95Zm.32-7.28H5.76a.316.316,0,0,0-.32.32V131a.314.314,0,0,0,.32.31H8.27a.32.32,0,0,0,.32-.31v-2.52a.32.32,0,0,0-.32-.31m-.32,2.51H6.07V128.8H7.95Zm.32-2.51H5.76a.316.316,0,0,0-.32.32V131a.314.314,0,0,0,.32.31H8.27a.32.32,0,0,0,.32-.31v-2.52a.32.32,0,0,0-.32-.31m-.32,2.51H6.07V128.8H7.95Zm.32,2.26H5.76a.314.314,0,0,0-.32.31v2.52a.314.314,0,0,0,.32.31H8.27a.322.322,0,0,0,.32-.32v-2.51a.32.32,0,0,0-.32-.31m-.32,2.51H6.07v-1.88H7.95Zm5.03-7.28H10.47a.314.314,0,0,0-.31.32V131a.312.312,0,0,0,.31.31h2.51a.314.314,0,0,0,.32-.31v-2.52a.314.314,0,0,0-.32-.31m-.31,2.51H10.79V128.8h1.88Zm.31,2.26H10.47a.312.312,0,0,0-.31.31v2.52a.312.312,0,0,0,.31.31h2.51a.314.314,0,0,0,.32-.31v-2.52a.314.314,0,0,0-.32-.31m-.31,2.51H10.79v-1.88h1.88Zm.31-2.51H10.47a.312.312,0,0,0-.31.31v2.52a.312.312,0,0,0,.31.31h2.51a.314.314,0,0,0,.32-.31v-2.52a.314.314,0,0,0-.32-.31m-.31,2.51H10.79v-1.88h1.88Zm.31-7.28H10.47a.314.314,0,0,0-.31.32V131a.312.312,0,0,0,.31.31h2.51a.314.314,0,0,0,.32-.31v-2.52a.314.314,0,0,0-.32-.31m-.31,2.51H10.79V128.8h1.88Zm-4.4,2.26H5.76a.314.314,0,0,0-.32.31v2.52a.314.314,0,0,0,.32.31H8.27a.322.322,0,0,0,.32-.32v-2.51a.32.32,0,0,0-.32-.31m-.32,2.51H6.07v-1.88H7.95Zm.32-7.28H5.76a.316.316,0,0,0-.32.32V131a.314.314,0,0,0,.32.31H8.27a.32.32,0,0,0,.32-.31v-2.52a.32.32,0,0,0-.32-.31m-.32,2.51H6.07V128.8H7.95Zm.32-2.51H5.76a.316.316,0,0,0-.32.32V131a.314.314,0,0,0,.32.31H8.27a.32.32,0,0,0,.32-.31v-2.52a.32.32,0,0,0-.32-.31m-.32,2.51H6.07V128.8H7.95Zm.32,2.26H5.76a.314.314,0,0,0-.32.31v2.52a.314.314,0,0,0,.32.31H8.27a.322.322,0,0,0,.32-.32v-2.51a.32.32,0,0,0-.32-.31m-.32,2.51H6.07v-1.88H7.95Zm5.03-7.28H10.47a.314.314,0,0,0-.31.32V131a.312.312,0,0,0,.31.31h2.51a.314.314,0,0,0,.32-.31v-2.52a.314.314,0,0,0-.32-.31m-.31,2.51H10.79V128.8h1.88Zm.31,2.26H10.47a.312.312,0,0,0-.31.31v2.52a.312.312,0,0,0,.31.31h2.51a.314.314,0,0,0,.32-.31v-2.52a.314.314,0,0,0-.32-.31m-.31,2.51H10.79v-1.88h1.88Zm.31-2.51H10.47a.312.312,0,0,0-.31.31v2.52a.312.312,0,0,0,.31.31h2.51a.314.314,0,0,0,.32-.31v-2.52a.314.314,0,0,0-.32-.31m-.31,2.51H10.79v-1.88h1.88Zm.31-7.28H10.47a.314.314,0,0,0-.31.32V131a.312.312,0,0,0,.31.31h2.51a.314.314,0,0,0,.32-.31v-2.52a.314.314,0,0,0-.32-.31m-.31,2.51H10.79V128.8h1.88Zm-4.4,2.26H5.76a.314.314,0,0,0-.32.31v2.52a.314.314,0,0,0,.32.31H8.27a.322.322,0,0,0,.32-.32v-2.51a.32.32,0,0,0-.32-.31m-.32,2.51H6.07v-1.88H7.95Zm.32-7.28H5.76a.316.316,0,0,0-.32.32V131a.314.314,0,0,0,.32.31H8.27a.32.32,0,0,0,.32-.31v-2.52a.32.32,0,0,0-.32-.31m-.32,2.51H6.07V128.8H7.95Zm.32-2.51H5.76a.316.316,0,0,0-.32.32V131a.314.314,0,0,0,.32.31H8.27a.32.32,0,0,0,.32-.31v-2.52a.32.32,0,0,0-.32-.31m-.32,2.51H6.07V128.8H7.95Zm.32,2.26H5.76a.314.314,0,0,0-.32.31v2.52a.314.314,0,0,0,.32.31H8.27a.322.322,0,0,0,.32-.32v-2.51a.32.32,0,0,0-.32-.31m-.32,2.51H6.07v-1.88H7.95Zm5.03-7.28H10.47a.314.314,0,0,0-.31.32V131a.312.312,0,0,0,.31.31h2.51a.314.314,0,0,0,.32-.31v-2.52a.314.314,0,0,0-.32-.31m-.31,2.51H10.79V128.8h1.88Zm.31,2.26H10.47a.312.312,0,0,0-.31.31v2.52a.312.312,0,0,0,.31.31h2.51a.314.314,0,0,0,.32-.31v-2.52a.314.314,0,0,0-.32-.31m-.31,2.51H10.79v-1.88h1.88Zm.31-2.51H10.47a.312.312,0,0,0-.31.31v2.52a.312.312,0,0,0,.31.31h2.51a.314.314,0,0,0,.32-.31v-2.52a.314.314,0,0,0-.32-.31m-.31,2.51H10.79v-1.88h1.88Zm.31-7.28H10.47a.314.314,0,0,0-.31.32V131a.312.312,0,0,0,.31.31h2.51a.314.314,0,0,0,.32-.31v-2.52a.314.314,0,0,0-.32-.31m-.31,2.51H10.79V128.8h1.88Zm-4.4,2.26H5.76a.314.314,0,0,0-.32.31v2.52a.314.314,0,0,0,.32.31H8.27a.322.322,0,0,0,.32-.32v-2.51a.32.32,0,0,0-.32-.31m-.32,2.51H6.07v-1.88H7.95Zm.32-7.28H5.76a.316.316,0,0,0-.32.32V131a.314.314,0,0,0,.32.31H8.27a.32.32,0,0,0,.32-.31v-2.52a.32.32,0,0,0-.32-.31m-.32,2.51H6.07V128.8H7.95Zm9.15,11.69H15.55V126.22a.322.322,0,0,0-.32-.32H3.5a.32.32,0,0,0-.31.32v16.15H1.64a.315.315,0,1,0,0,.63H17.1a.315.315,0,1,0,0-.63m-5.79,0H7.42v-3.89h3.89Zm3.61,0H11.95v-4.2a.322.322,0,0,0-.32-.32H7.11a.322.322,0,0,0-.32.32v4.2H3.82V126.54h11.1Zm-4.45-6.29h2.51a.314.314,0,0,0,.32-.31v-2.52a.314.314,0,0,0-.32-.31H10.47a.312.312,0,0,0-.31.31v2.52a.312.312,0,0,0,.31.31m.32-2.51h1.88v1.88H10.79Zm-.32-2.26h2.51a.314.314,0,0,0,.32-.31v-2.52a.314.314,0,0,0-.32-.31H10.47a.314.314,0,0,0-.31.32V131a.312.312,0,0,0,.31.31m.32-2.51h1.88v1.88H10.79Zm-5.03,7.28H8.27a.322.322,0,0,0,.32-.32v-2.51a.32.32,0,0,0-.32-.31H5.76a.314.314,0,0,0-.32.31v2.52a.314.314,0,0,0,.32.31m.31-2.51H7.95v1.88H6.07Zm-.31-2.26H8.27a.32.32,0,0,0,.32-.31v-2.52a.32.32,0,0,0-.32-.31H5.76a.316.316,0,0,0-.32.32V131a.314.314,0,0,0,.32.31m.31-2.51H7.95v1.88H6.07Zm2.2-.63H5.76a.316.316,0,0,0-.32.32V131a.314.314,0,0,0,.32.31H8.27a.32.32,0,0,0,.32-.31v-2.52a.32.32,0,0,0-.32-.31m-.32,2.51H6.07V128.8H7.95Zm.32,2.26H5.76a.314.314,0,0,0-.32.31v2.52a.314.314,0,0,0,.32.31H8.27a.322.322,0,0,0,.32-.32v-2.51a.32.32,0,0,0-.32-.31m-.32,2.51H6.07v-1.88H7.95Zm5.03-7.28H10.47a.314.314,0,0,0-.31.32V131a.312.312,0,0,0,.31.31h2.51a.314.314,0,0,0,.32-.31v-2.52a.314.314,0,0,0-.32-.31m-.31,2.51H10.79V128.8h1.88Zm.31,2.26H10.47a.312.312,0,0,0-.31.31v2.52a.312.312,0,0,0,.31.31h2.51a.314.314,0,0,0,.32-.31v-2.52a.314.314,0,0,0-.32-.31m-.31,2.51H10.79v-1.88h1.88Zm.31-2.51H10.47a.312.312,0,0,0-.31.31v2.52a.312.312,0,0,0,.31.31h2.51a.314.314,0,0,0,.32-.31v-2.52a.314.314,0,0,0-.32-.31m-.31,2.51H10.79v-1.88h1.88Zm.31-7.28H10.47a.314.314,0,0,0-.31.32V131a.312.312,0,0,0,.31.31h2.51a.314.314,0,0,0,.32-.31v-2.52a.314.314,0,0,0-.32-.31m-.31,2.51H10.79V128.8h1.88Zm-4.4,2.26H5.76a.314.314,0,0,0-.32.31v2.52a.314.314,0,0,0,.32.31H8.27a.322.322,0,0,0,.32-.32v-2.51a.32.32,0,0,0-.32-.31m-.32,2.51H6.07v-1.88H7.95Zm.32-7.28H5.76a.316.316,0,0,0-.32.32V131a.314.314,0,0,0,.32.31H8.27a.32.32,0,0,0,.32-.31v-2.52a.32.32,0,0,0-.32-.31m-.32,2.51H6.07V128.8H7.95Zm.32-2.51H5.76a.316.316,0,0,0-.32.32V131a.314.314,0,0,0,.32.31H8.27a.32.32,0,0,0,.32-.31v-2.52a.32.32,0,0,0-.32-.31m-.32,2.51H6.07V128.8H7.95Zm.32,2.26H5.76a.314.314,0,0,0-.32.31v2.52a.314.314,0,0,0,.32.31H8.27a.322.322,0,0,0,.32-.32v-2.51a.32.32,0,0,0-.32-.31m-.32,2.51H6.07v-1.88H7.95Zm5.03-7.28H10.47a.314.314,0,0,0-.31.32V131a.312.312,0,0,0,.31.31h2.51a.314.314,0,0,0,.32-.31v-2.52a.314.314,0,0,0-.32-.31m-.31,2.51H10.79V128.8h1.88Zm.31,2.26H10.47a.312.312,0,0,0-.31.31v2.52a.312.312,0,0,0,.31.31h2.51a.314.314,0,0,0,.32-.31v-2.52a.314.314,0,0,0-.32-.31m-.31,2.51H10.79v-1.88h1.88Zm.31-2.51H10.47a.312.312,0,0,0-.31.31v2.52a.312.312,0,0,0,.31.31h2.51a.314.314,0,0,0,.32-.31v-2.52a.314.314,0,0,0-.32-.31m-.31,2.51H10.79v-1.88h1.88Zm.31-7.28H10.47a.314.314,0,0,0-.31.32V131a.312.312,0,0,0,.31.31h2.51a.314.314,0,0,0,.32-.31v-2.52a.314.314,0,0,0-.32-.31m-.31,2.51H10.79V128.8h1.88Zm-4.4,2.26H5.76a.314.314,0,0,0-.32.31v2.52a.314.314,0,0,0,.32.31H8.27a.322.322,0,0,0,.32-.32v-2.51a.32.32,0,0,0-.32-.31m-.32,2.51H6.07v-1.88H7.95Zm.32-7.28H5.76a.316.316,0,0,0-.32.32V131a.314.314,0,0,0,.32.31H8.27a.32.32,0,0,0,.32-.31v-2.52a.32.32,0,0,0-.32-.31m-.32,2.51H6.07V128.8H7.95Zm.32-2.51H5.76a.316.316,0,0,0-.32.32V131a.314.314,0,0,0,.32.31H8.27a.32.32,0,0,0,.32-.31v-2.52a.32.32,0,0,0-.32-.31m-.32,2.51H6.07V128.8H7.95Zm.32,2.26H5.76a.314.314,0,0,0-.32.31v2.52a.314.314,0,0,0,.32.31H8.27a.322.322,0,0,0,.32-.32v-2.51a.32.32,0,0,0-.32-.31m-.32,2.51H6.07v-1.88H7.95Zm5.03-7.28H10.47a.314.314,0,0,0-.31.32V131a.312.312,0,0,0,.31.31h2.51a.314.314,0,0,0,.32-.31v-2.52a.314.314,0,0,0-.32-.31m-.31,2.51H10.79V128.8h1.88Zm.31,2.26H10.47a.312.312,0,0,0-.31.31v2.52a.312.312,0,0,0,.31.31h2.51a.314.314,0,0,0,.32-.31v-2.52a.314.314,0,0,0-.32-.31m-.31,2.51H10.79v-1.88h1.88Zm.31-2.51H10.47a.312.312,0,0,0-.31.31v2.52a.312.312,0,0,0,.31.31h2.51a.314.314,0,0,0,.32-.31v-2.52a.314.314,0,0,0-.32-.31m-.31,2.51H10.79v-1.88h1.88Zm.31-7.28H10.47a.314.314,0,0,0-.31.32V131a.312.312,0,0,0,.31.31h2.51a.314.314,0,0,0,.32-.31v-2.52a.314.314,0,0,0-.32-.31m-.31,2.51H10.79V128.8h1.88Zm-4.4,2.26H5.76a.314.314,0,0,0-.32.31v2.52a.314.314,0,0,0,.32.31H8.27a.322.322,0,0,0,.32-.32v-2.51a.32.32,0,0,0-.32-.31m-.32,2.51H6.07v-1.88H7.95Zm.32-7.28H5.76a.316.316,0,0,0-.32.32V131a.314.314,0,0,0,.32.31H8.27a.32.32,0,0,0,.32-.31v-2.52a.32.32,0,0,0-.32-.31m-.32,2.51H6.07V128.8H7.95Zm.32-2.51H5.76a.316.316,0,0,0-.32.32V131a.314.314,0,0,0,.32.31H8.27a.32.32,0,0,0,.32-.31v-2.52a.32.32,0,0,0-.32-.31m-.32,2.51H6.07V128.8H7.95Zm.32,2.26H5.76a.314.314,0,0,0-.32.31v2.52a.314.314,0,0,0,.32.31H8.27a.322.322,0,0,0,.32-.32v-2.51a.32.32,0,0,0-.32-.31m-.32,2.51H6.07v-1.88H7.95Zm5.03-7.28H10.47a.314.314,0,0,0-.31.32V131a.312.312,0,0,0,.31.31h2.51a.314.314,0,0,0,.32-.31v-2.52a.314.314,0,0,0-.32-.31m-.31,2.51H10.79V128.8h1.88Zm.31,2.26H10.47a.312.312,0,0,0-.31.31v2.52a.312.312,0,0,0,.31.31h2.51a.314.314,0,0,0,.32-.31v-2.52a.314.314,0,0,0-.32-.31m-.31,2.51H10.79v-1.88h1.88Zm.31-2.51H10.47a.312.312,0,0,0-.31.31v2.52a.312.312,0,0,0,.31.31h2.51a.314.314,0,0,0,.32-.31v-2.52a.314.314,0,0,0-.32-.31m-.31,2.51H10.79v-1.88h1.88Zm.31-7.28H10.47a.314.314,0,0,0-.31.32V131a.312.312,0,0,0,.31.31h2.51a.314.314,0,0,0,.32-.31v-2.52a.314.314,0,0,0-.32-.31m-.31,2.51H10.79V128.8h1.88Zm-4.4,2.26H5.76a.314.314,0,0,0-.32.31v2.52a.314.314,0,0,0,.32.31H8.27a.322.322,0,0,0,.32-.32v-2.51a.32.32,0,0,0-.32-.31m-.32,2.51H6.07v-1.88H7.95Zm.32-7.28H5.76a.316.316,0,0,0-.32.32V131a.314.314,0,0,0,.32.31H8.27a.32.32,0,0,0,.32-.31v-2.52a.32.32,0,0,0-.32-.31m-.32,2.51H6.07V128.8H7.95Zm.32-2.51H5.76a.316.316,0,0,0-.32.32V131a.314.314,0,0,0,.32.31H8.27a.32.32,0,0,0,.32-.31v-2.52a.32.32,0,0,0-.32-.31m-.32,2.51H6.07V128.8H7.95Zm.32,2.26H5.76a.314.314,0,0,0-.32.31v2.52a.314.314,0,0,0,.32.31H8.27a.322.322,0,0,0,.32-.32v-2.51a.32.32,0,0,0-.32-.31m-.32,2.51H6.07v-1.88H7.95Zm5.03-7.28H10.47a.314.314,0,0,0-.31.32V131a.312.312,0,0,0,.31.31h2.51a.314.314,0,0,0,.32-.31v-2.52a.314.314,0,0,0-.32-.31m-.31,2.51H10.79V128.8h1.88Zm.31,2.26H10.47a.312.312,0,0,0-.31.31v2.52a.312.312,0,0,0,.31.31h2.51a.314.314,0,0,0,.32-.31v-2.52a.314.314,0,0,0-.32-.31m-.31,2.51H10.79v-1.88h1.88Zm.31-2.51H10.47a.312.312,0,0,0-.31.31v2.52a.312.312,0,0,0,.31.31h2.51a.314.314,0,0,0,.32-.31v-2.52a.314.314,0,0,0-.32-.31m-.31,2.51H10.79v-1.88h1.88Zm.31-7.28H10.47a.314.314,0,0,0-.31.32V131a.312.312,0,0,0,.31.31h2.51a.314.314,0,0,0,.32-.31v-2.52a.314.314,0,0,0-.32-.31m-.31,2.51H10.79V128.8h1.88Zm-4.4,2.26H5.76a.314.314,0,0,0-.32.31v2.52a.314.314,0,0,0,.32.31H8.27a.322.322,0,0,0,.32-.32v-2.51a.32.32,0,0,0-.32-.31m-.32,2.51H6.07v-1.88H7.95Zm.32-7.28H5.76a.316.316,0,0,0-.32.32V131a.314.314,0,0,0,.32.31H8.27a.32.32,0,0,0,.32-.31v-2.52a.32.32,0,0,0-.32-.31m-.32,2.51H6.07V128.8H7.95Z" transform="translate(-1.32 -125.9)" fill="#fff"/>
</svg>
