<svg xmlns="http://www.w3.org/2000/svg" width="17.627" height="17.621" viewBox="0 0 17.627 17.621">
  <path id="Path_51606" data-name="Path 51606" d="M11.83,307.3,10,306.56l.01-1.94a.356.356,0,0,0-.35-.36H9.65a.348.348,0,0,0-.35.35l-.02,2.19a.346.346,0,0,0,.23.33l2.05.84a.447.447,0,0,0,.28,0,.412.412,0,0,0,.19-.2.416.416,0,0,0,0-.27.39.39,0,0,0-.2-.2m0,0L10,306.56l.01-1.94a.356.356,0,0,0-.35-.36H9.65a.348.348,0,0,0-.35.35l-.02,2.19a.346.346,0,0,0,.23.33l2.05.84a.447.447,0,0,0,.28,0,.412.412,0,0,0,.19-.2.416.416,0,0,0,0-.27.39.39,0,0,0-.2-.2m0,0L10,306.56l.01-1.94a.356.356,0,0,0-.35-.36H9.65a.348.348,0,0,0-.35.35l-.02,2.19a.346.346,0,0,0,.23.33l2.05.84a.447.447,0,0,0,.28,0,.412.412,0,0,0,.19-.2.416.416,0,0,0,0-.27.39.39,0,0,0-.2-.2m0,0L10,306.56l.01-1.94a.356.356,0,0,0-.35-.36H9.65a.348.348,0,0,0-.35.35l-.02,2.19a.346.346,0,0,0,.23.33l2.05.84a.447.447,0,0,0,.28,0,.412.412,0,0,0,.19-.2.416.416,0,0,0,0-.27.39.39,0,0,0-.2-.2m0,0L10,306.56l.01-1.94a.356.356,0,0,0-.35-.36H9.65a.348.348,0,0,0-.35.35l-.02,2.19a.346.346,0,0,0,.23.33l2.05.84a.447.447,0,0,0,.28,0,.412.412,0,0,0,.19-.2.416.416,0,0,0,0-.27.39.39,0,0,0-.2-.2m0,0L10,306.56l.01-1.94a.356.356,0,0,0-.35-.36H9.65a.348.348,0,0,0-.35.35l-.02,2.19a.346.346,0,0,0,.23.33l2.05.84a.447.447,0,0,0,.28,0,.412.412,0,0,0,.19-.2.416.416,0,0,0,0-.27.39.39,0,0,0-.2-.2m0,0L10,306.56l.01-1.94a.356.356,0,0,0-.35-.36H9.65a.348.348,0,0,0-.35.35l-.02,2.19a.346.346,0,0,0,.23.33l2.05.84a.447.447,0,0,0,.28,0,.412.412,0,0,0,.19-.2.416.416,0,0,0,0-.27.39.39,0,0,0-.2-.2m0,0L10,306.56l.01-1.94a.356.356,0,0,0-.35-.36H9.65a.348.348,0,0,0-.35.35l-.02,2.19a.346.346,0,0,0,.23.33l2.05.84a.447.447,0,0,0,.28,0,.412.412,0,0,0,.19-.2.416.416,0,0,0,0-.27.39.39,0,0,0-.2-.2m0,0L10,306.56l.01-1.94a.356.356,0,0,0-.35-.36H9.65a.348.348,0,0,0-.35.35l-.02,2.19a.346.346,0,0,0,.23.33l2.05.84a.447.447,0,0,0,.28,0,.412.412,0,0,0,.19-.2.416.416,0,0,0,0-.27.39.39,0,0,0-.2-.2m0,0L10,306.56l.01-1.94a.356.356,0,0,0-.35-.36H9.65a.348.348,0,0,0-.35.35l-.02,2.19a.346.346,0,0,0,.23.33l2.05.84a.447.447,0,0,0,.28,0,.412.412,0,0,0,.19-.2.416.416,0,0,0,0-.27.39.39,0,0,0-.2-.2m6.23-7.77-1.56-1.19v-3.36a.356.356,0,0,0-.35-.36h-2.1a.359.359,0,0,0-.36.36v1.2l-3.03-2.32a1.411,1.411,0,0,0-1.72,0l-7.4,5.67a1.4,1.4,0,0,0-.5,1.5,1.4,1.4,0,0,0,1.74.98l.31-.09v6.8a.358.358,0,0,0,.36.36H5.93l.07.11a4.423,4.423,0,0,0,.56.67l.07.07a4.63,4.63,0,0,0,6.42-.07,4.459,4.459,0,0,0,.55-.67l.07-.1h2.48a.363.363,0,0,0,.35-.36v-6.81l.32.09a1.412,1.412,0,0,0,1.24-2.48m-3.66-4.2h1.39v2.46l-1.39-1.06Zm-1.85,14.04a3.889,3.889,0,0,1-6.64-2.75v-.02a3.875,3.875,0,0,1,3.88-3.86H9.8a3.882,3.882,0,0,1,2.75,6.63m3.24-1H14.07l.11-.33a4.488,4.488,0,0,0,.22-1.42,4.58,4.58,0,0,0-1.35-3.24l-.08-.08a4.607,4.607,0,0,0-3.18-1.29H9.78a4.6,4.6,0,0,0-4.58,4.61,4.311,4.311,0,0,0,.23,1.42l.11.33H3.81v-7.02l5.99-4.6,5.99,4.6Zm1.9-7.23a.68.68,0,0,1-.49.2h-.01a.732.732,0,0,1-.4-.13l-.36-.28a.364.364,0,0,0-.09-.07l-6.32-4.84a.36.36,0,0,0-.44,0l-6.29,4.82c-.07.04-.09.06-.11.07l-.36.28a.7.7,0,0,1-.92-.11.679.679,0,0,1-.17-.5.706.706,0,0,1,.23-.48l7.41-5.68a.733.733,0,0,1,.43-.14.706.706,0,0,1,.42.14l7.4,5.67a.692.692,0,0,1,.28.57.684.684,0,0,1-.21.48M10,306.56l.01-1.94a.356.356,0,0,0-.35-.36H9.65a.348.348,0,0,0-.35.35l-.02,2.19a.346.346,0,0,0,.23.33l2.05.84a.447.447,0,0,0,.28,0,.412.412,0,0,0,.19-.2.416.416,0,0,0,0-.27.39.39,0,0,0-.2-.2Zm1.83.74L10,306.56l.01-1.94a.356.356,0,0,0-.35-.36H9.65a.348.348,0,0,0-.35.35l-.02,2.19a.346.346,0,0,0,.23.33l2.05.84a.447.447,0,0,0,.28,0,.412.412,0,0,0,.19-.2.416.416,0,0,0,0-.27.39.39,0,0,0-.2-.2m0,0L10,306.56l.01-1.94a.356.356,0,0,0-.35-.36H9.65a.348.348,0,0,0-.35.35l-.02,2.19a.346.346,0,0,0,.23.33l2.05.84a.447.447,0,0,0,.28,0,.412.412,0,0,0,.19-.2.416.416,0,0,0,0-.27.39.39,0,0,0-.2-.2m0,0L10,306.56l.01-1.94a.356.356,0,0,0-.35-.36H9.65a.348.348,0,0,0-.35.35l-.02,2.19a.346.346,0,0,0,.23.33l2.05.84a.447.447,0,0,0,.28,0,.412.412,0,0,0,.19-.2.416.416,0,0,0,0-.27.39.39,0,0,0-.2-.2m0,0L10,306.56l.01-1.94a.356.356,0,0,0-.35-.36H9.65a.348.348,0,0,0-.35.35l-.02,2.19a.346.346,0,0,0,.23.33l2.05.84a.447.447,0,0,0,.28,0,.412.412,0,0,0,.19-.2.416.416,0,0,0,0-.27.39.39,0,0,0-.2-.2m0,0L10,306.56l.01-1.94a.356.356,0,0,0-.35-.36H9.65a.348.348,0,0,0-.35.35l-.02,2.19a.346.346,0,0,0,.23.33l2.05.84a.447.447,0,0,0,.28,0,.412.412,0,0,0,.19-.2.416.416,0,0,0,0-.27.39.39,0,0,0-.2-.2m0,0L10,306.56l.01-1.94a.356.356,0,0,0-.35-.36H9.65a.348.348,0,0,0-.35.35l-.02,2.19a.346.346,0,0,0,.23.33l2.05.84a.447.447,0,0,0,.28,0,.412.412,0,0,0,.19-.2.416.416,0,0,0,0-.27.39.39,0,0,0-.2-.2m0,0L10,306.56l.01-1.94a.356.356,0,0,0-.35-.36H9.65a.348.348,0,0,0-.35.35l-.02,2.19a.346.346,0,0,0,.23.33l2.05.84a.447.447,0,0,0,.28,0,.412.412,0,0,0,.19-.2.416.416,0,0,0,0-.27.39.39,0,0,0-.2-.2m0,0L10,306.56l.01-1.94a.356.356,0,0,0-.35-.36H9.65a.348.348,0,0,0-.35.35l-.02,2.19a.346.346,0,0,0,.23.33l2.05.84a.447.447,0,0,0,.28,0,.412.412,0,0,0,.19-.2.416.416,0,0,0,0-.27.39.39,0,0,0-.2-.2" transform="translate(-0.986 -293.568)" fill="#fff"/>
</svg>
