<svg xmlns="http://www.w3.org/2000/svg" width="15.37" height="17.01" viewBox="0 0 15.37 17.01">
  <path id="Path_51603" data-name="Path 51603" d="M9.93,508.4H5.84a.322.322,0,0,0-.32.32.316.316,0,0,0,.32.32H9.93a.316.316,0,0,0,.32-.32.322.322,0,0,0-.32-.32m4.09,3.28H5.84a.316.316,0,0,0-.32.32.322.322,0,0,0,.32.32h8.18a.322.322,0,0,0,.32-.32.316.316,0,0,0-.32-.32m-.6,2.51a.32.32,0,0,0-.45.05l-1.88,2.2a.544.544,0,0,1-.38.17H10.7a.469.469,0,0,1-.35-.15l-.43-.43a1.147,1.147,0,0,0-1.61,0l-1.88,1.88a.31.31,0,0,0-.09.22.308.308,0,0,0,.32.32.31.31,0,0,0,.22-.09l1.88-1.87a.426.426,0,0,1,.37-.17.439.439,0,0,1,.37.2l.4.4a1.229,1.229,0,0,0,.82.33,1.166,1.166,0,0,0,.85-.4l1.88-2.19a.322.322,0,0,0-.03-.47m.6-2.51H5.84a.316.316,0,0,0-.32.32.322.322,0,0,0,.32.32h8.18a.322.322,0,0,0,.32-.32.316.316,0,0,0-.32-.32m-.6,2.51a.32.32,0,0,0-.45.05l-1.88,2.2a.544.544,0,0,1-.38.17H10.7a.469.469,0,0,1-.35-.15l-.43-.43a1.147,1.147,0,0,0-1.61,0l-1.88,1.88a.31.31,0,0,0-.09.22.308.308,0,0,0,.32.32.31.31,0,0,0,.22-.09l1.88-1.87a.426.426,0,0,1,.37-.17.439.439,0,0,1,.37.2l.4.4a1.229,1.229,0,0,0,.82.33,1.166,1.166,0,0,0,.85-.4l1.88-2.19a.322.322,0,0,0-.03-.47M9.93,508.4H5.84a.322.322,0,0,0-.32.32.316.316,0,0,0,.32.32H9.93a.316.316,0,0,0,.32-.32.322.322,0,0,0-.32-.32m0,0H5.84a.322.322,0,0,0-.32.32.316.316,0,0,0,.32.32H9.93a.316.316,0,0,0,.32-.32.322.322,0,0,0-.32-.32m3.49,5.79a.32.32,0,0,0-.45.05l-1.88,2.2a.544.544,0,0,1-.38.17H10.7a.469.469,0,0,1-.35-.15l-.43-.43a1.147,1.147,0,0,0-1.61,0l-1.88,1.88a.31.31,0,0,0-.09.22.308.308,0,0,0,.32.32.31.31,0,0,0,.22-.09l1.88-1.87a.426.426,0,0,1,.37-.17.439.439,0,0,1,.37.2l.4.4a1.229,1.229,0,0,0,.82.33,1.166,1.166,0,0,0,.85-.4l1.88-2.19a.322.322,0,0,0-.03-.47m.6-2.51H5.84a.316.316,0,0,0-.32.32.322.322,0,0,0,.32.32h8.18a.322.322,0,0,0,.32-.32.316.316,0,0,0-.32-.32m0,0H5.84a.316.316,0,0,0-.32.32.322.322,0,0,0,.32.32h8.18a.322.322,0,0,0,.32-.32.316.316,0,0,0-.32-.32m-.6,2.51a.32.32,0,0,0-.45.05l-1.88,2.2a.544.544,0,0,1-.38.17H10.7a.469.469,0,0,1-.35-.15l-.43-.43a1.147,1.147,0,0,0-1.61,0l-1.88,1.88a.31.31,0,0,0-.09.22.308.308,0,0,0,.32.32.31.31,0,0,0,.22-.09l1.88-1.87a.426.426,0,0,1,.37-.17.439.439,0,0,1,.37.2l.4.4a1.229,1.229,0,0,0,.82.33,1.166,1.166,0,0,0,.85-.4l1.88-2.19a.322.322,0,0,0-.03-.47M9.93,508.4H5.84a.322.322,0,0,0-.32.32.316.316,0,0,0,.32.32H9.93a.316.316,0,0,0,.32-.32.322.322,0,0,0-.32-.32m0,0H5.84a.322.322,0,0,0-.32.32.316.316,0,0,0,.32.32H9.93a.316.316,0,0,0,.32-.32.322.322,0,0,0-.32-.32m3.49,5.79a.32.32,0,0,0-.45.05l-1.88,2.2a.544.544,0,0,1-.38.17H10.7a.469.469,0,0,1-.35-.15l-.43-.43a1.147,1.147,0,0,0-1.61,0l-1.88,1.88a.31.31,0,0,0-.09.22.308.308,0,0,0,.32.32.31.31,0,0,0,.22-.09l1.88-1.87a.426.426,0,0,1,.37-.17.439.439,0,0,1,.37.2l.4.4a1.229,1.229,0,0,0,.82.33,1.166,1.166,0,0,0,.85-.4l1.88-2.19a.322.322,0,0,0-.03-.47m.6-2.51H5.84a.316.316,0,0,0-.32.32.322.322,0,0,0,.32.32h8.18a.322.322,0,0,0,.32-.32.316.316,0,0,0-.32-.32m0,0H5.84a.316.316,0,0,0-.32.32.322.322,0,0,0,.32.32h8.18a.322.322,0,0,0,.32-.32.316.316,0,0,0-.32-.32m-.6,2.51a.32.32,0,0,0-.45.05l-1.88,2.2a.544.544,0,0,1-.38.17H10.7a.469.469,0,0,1-.35-.15l-.43-.43a1.147,1.147,0,0,0-1.61,0l-1.88,1.88a.31.31,0,0,0-.09.22.308.308,0,0,0,.32.32.31.31,0,0,0,.22-.09l1.88-1.87a.426.426,0,0,1,.37-.17.439.439,0,0,1,.37.2l.4.4a1.229,1.229,0,0,0,.82.33,1.166,1.166,0,0,0,.85-.4l1.88-2.19a.322.322,0,0,0-.03-.47M9.93,508.4H5.84a.322.322,0,0,0-.32.32.316.316,0,0,0,.32.32H9.93a.316.316,0,0,0,.32-.32.322.322,0,0,0-.32-.32m0,0H5.84a.322.322,0,0,0-.32.32.316.316,0,0,0,.32.32H9.93a.316.316,0,0,0,.32-.32.322.322,0,0,0-.32-.32m3.49,5.79a.32.32,0,0,0-.45.05l-1.88,2.2a.544.544,0,0,1-.38.17H10.7a.469.469,0,0,1-.35-.15l-.43-.43a1.147,1.147,0,0,0-1.61,0l-1.88,1.88a.31.31,0,0,0-.09.22.308.308,0,0,0,.32.32.31.31,0,0,0,.22-.09l1.88-1.87a.426.426,0,0,1,.37-.17.439.439,0,0,1,.37.2l.4.4a1.229,1.229,0,0,0,.82.33,1.166,1.166,0,0,0,.85-.4l1.88-2.19a.322.322,0,0,0-.03-.47m.6-2.51H5.84a.316.316,0,0,0-.32.32.322.322,0,0,0,.32.32h8.18a.322.322,0,0,0,.32-.32.316.316,0,0,0-.32-.32m0,0H5.84a.316.316,0,0,0-.32.32.322.322,0,0,0,.32.32h8.18a.322.322,0,0,0,.32-.32.316.316,0,0,0-.32-.32m-.6,2.51a.32.32,0,0,0-.45.05l-1.88,2.2a.544.544,0,0,1-.38.17H10.7a.469.469,0,0,1-.35-.15l-.43-.43a1.147,1.147,0,0,0-1.61,0l-1.88,1.88a.31.31,0,0,0-.09.22.308.308,0,0,0,.32.32.31.31,0,0,0,.22-.09l1.88-1.87a.426.426,0,0,1,.37-.17.439.439,0,0,1,.37.2l.4.4a1.229,1.229,0,0,0,.82.33,1.166,1.166,0,0,0,.85-.4l1.88-2.19a.322.322,0,0,0-.03-.47M9.93,508.4H5.84a.322.322,0,0,0-.32.32.316.316,0,0,0,.32.32H9.93a.316.316,0,0,0,.32-.32.322.322,0,0,0-.32-.32m0,0H5.84a.322.322,0,0,0-.32.32.316.316,0,0,0,.32.32H9.93a.316.316,0,0,0,.32-.32.322.322,0,0,0-.32-.32m3.49,5.79a.32.32,0,0,0-.45.05l-1.88,2.2a.544.544,0,0,1-.38.17H10.7a.469.469,0,0,1-.35-.15l-.43-.43a1.147,1.147,0,0,0-1.61,0l-1.88,1.88a.31.31,0,0,0-.09.22.308.308,0,0,0,.32.32.31.31,0,0,0,.22-.09l1.88-1.87a.426.426,0,0,1,.37-.17.439.439,0,0,1,.37.2l.4.4a1.229,1.229,0,0,0,.82.33,1.166,1.166,0,0,0,.85-.4l1.88-2.19a.322.322,0,0,0-.03-.47m.6-2.51H5.84a.316.316,0,0,0-.32.32.322.322,0,0,0,.32.32h8.18a.322.322,0,0,0,.32-.32.316.316,0,0,0-.32-.32m0,0H5.84a.316.316,0,0,0-.32.32.322.322,0,0,0,.32.32h8.18a.322.322,0,0,0,.32-.32.316.316,0,0,0-.32-.32m-1.05,2.56-1.88,2.2a.544.544,0,0,1-.38.17H10.7a.469.469,0,0,1-.35-.15l-.43-.43a1.147,1.147,0,0,0-1.61,0l-1.88,1.88a.31.31,0,0,0-.09.22.308.308,0,0,0,.32.32.31.31,0,0,0,.22-.09l1.88-1.87a.426.426,0,0,1,.37-.17.439.439,0,0,1,.37.2l.4.4a1.229,1.229,0,0,0,.82.33,1.166,1.166,0,0,0,.85-.4l1.88-2.19a.319.319,0,1,0-.48-.42m-7.13-5.2H9.93a.316.316,0,0,0,.32-.32.322.322,0,0,0-.32-.32H5.84a.322.322,0,0,0-.32.32.316.316,0,0,0,.32.32m10.78-1.71-3.35-2.78a2.741,2.741,0,0,0-1.77-.65H5.02a2.791,2.791,0,0,0-2.77,2.78v11.45a2.791,2.791,0,0,0,2.77,2.78h9.82a2.8,2.8,0,0,0,2.78-2.78v-8.67a2.776,2.776,0,0,0-1-2.13m-3.91-2.43,3.7,3.1H14.02a1.33,1.33,0,0,1-1.31-1.32Zm4.27,13.23a2.149,2.149,0,0,1-2.14,2.14H5.02a2.14,2.14,0,0,1-2.13-2.14V506.68a2.14,2.14,0,0,1,2.13-2.14H11.5a2.184,2.184,0,0,1,.36.03l.21.04v2.07a1.959,1.959,0,0,0,1.95,1.95h2.8l.05.18a2.063,2.063,0,0,1,.11.65Zm-2.96-6.45H5.84a.316.316,0,0,0-.32.32.322.322,0,0,0,.32.32h8.18a.322.322,0,0,0,.32-.32.316.316,0,0,0-.32-.32m-1.05,2.56-1.88,2.2a.544.544,0,0,1-.38.17H10.7a.469.469,0,0,1-.35-.15l-.43-.43a1.147,1.147,0,0,0-1.61,0l-1.88,1.88a.31.31,0,0,0-.09.22.308.308,0,0,0,.32.32.31.31,0,0,0,.22-.09l1.88-1.87a.426.426,0,0,1,.37-.17.439.439,0,0,1,.37.2l.4.4a1.229,1.229,0,0,0,.82.33,1.166,1.166,0,0,0,.85-.4l1.88-2.19a.319.319,0,1,0-.48-.42m-7.13-5.2H9.93a.316.316,0,0,0,.32-.32.322.322,0,0,0-.32-.32H5.84a.322.322,0,0,0-.32.32.316.316,0,0,0,.32.32m4.09-.64H5.84a.322.322,0,0,0-.32.32.316.316,0,0,0,.32.32H9.93a.316.316,0,0,0,.32-.32.322.322,0,0,0-.32-.32m3.49,5.79a.32.32,0,0,0-.45.05l-1.88,2.2a.544.544,0,0,1-.38.17H10.7a.469.469,0,0,1-.35-.15l-.43-.43a1.147,1.147,0,0,0-1.61,0l-1.88,1.88a.31.31,0,0,0-.09.22.308.308,0,0,0,.32.32.31.31,0,0,0,.22-.09l1.88-1.87a.426.426,0,0,1,.37-.17.439.439,0,0,1,.37.2l.4.4a1.229,1.229,0,0,0,.82.33,1.166,1.166,0,0,0,.85-.4l1.88-2.19a.322.322,0,0,0-.03-.47m.6-2.51H5.84a.316.316,0,0,0-.32.32.322.322,0,0,0,.32.32h8.18a.322.322,0,0,0,.32-.32.316.316,0,0,0-.32-.32m0,0H5.84a.316.316,0,0,0-.32.32.322.322,0,0,0,.32.32h8.18a.322.322,0,0,0,.32-.32.316.316,0,0,0-.32-.32m-.6,2.51a.32.32,0,0,0-.45.05l-1.88,2.2a.544.544,0,0,1-.38.17H10.7a.469.469,0,0,1-.35-.15l-.43-.43a1.147,1.147,0,0,0-1.61,0l-1.88,1.88a.31.31,0,0,0-.09.22.308.308,0,0,0,.32.32.31.31,0,0,0,.22-.09l1.88-1.87a.426.426,0,0,1,.37-.17.439.439,0,0,1,.37.2l.4.4a1.229,1.229,0,0,0,.82.33,1.166,1.166,0,0,0,.85-.4l1.88-2.19a.322.322,0,0,0-.03-.47M9.93,508.4H5.84a.322.322,0,0,0-.32.32.316.316,0,0,0,.32.32H9.93a.316.316,0,0,0,.32-.32.322.322,0,0,0-.32-.32m0,0H5.84a.322.322,0,0,0-.32.32.316.316,0,0,0,.32.32H9.93a.316.316,0,0,0,.32-.32.322.322,0,0,0-.32-.32m3.49,5.79a.32.32,0,0,0-.45.05l-1.88,2.2a.544.544,0,0,1-.38.17H10.7a.469.469,0,0,1-.35-.15l-.43-.43a1.147,1.147,0,0,0-1.61,0l-1.88,1.88a.31.31,0,0,0-.09.22.308.308,0,0,0,.32.32.31.31,0,0,0,.22-.09l1.88-1.87a.426.426,0,0,1,.37-.17.439.439,0,0,1,.37.2l.4.4a1.229,1.229,0,0,0,.82.33,1.166,1.166,0,0,0,.85-.4l1.88-2.19a.322.322,0,0,0-.03-.47m.6-2.51H5.84a.316.316,0,0,0-.32.32.322.322,0,0,0,.32.32h8.18a.322.322,0,0,0,.32-.32.316.316,0,0,0-.32-.32m0,0H5.84a.316.316,0,0,0-.32.32.322.322,0,0,0,.32.32h8.18a.322.322,0,0,0,.32-.32.316.316,0,0,0-.32-.32m-.6,2.51a.32.32,0,0,0-.45.05l-1.88,2.2a.544.544,0,0,1-.38.17H10.7a.469.469,0,0,1-.35-.15l-.43-.43a1.147,1.147,0,0,0-1.61,0l-1.88,1.88a.31.31,0,0,0-.09.22.308.308,0,0,0,.32.32.31.31,0,0,0,.22-.09l1.88-1.87a.426.426,0,0,1,.37-.17.439.439,0,0,1,.37.2l.4.4a1.229,1.229,0,0,0,.82.33,1.166,1.166,0,0,0,.85-.4l1.88-2.19a.322.322,0,0,0-.03-.47M9.93,508.4H5.84a.322.322,0,0,0-.32.32.316.316,0,0,0,.32.32H9.93a.316.316,0,0,0,.32-.32.322.322,0,0,0-.32-.32m0,0H5.84a.322.322,0,0,0-.32.32.316.316,0,0,0,.32.32H9.93a.316.316,0,0,0,.32-.32.322.322,0,0,0-.32-.32m3.49,5.79a.32.32,0,0,0-.45.05l-1.88,2.2a.544.544,0,0,1-.38.17H10.7a.469.469,0,0,1-.35-.15l-.43-.43a1.147,1.147,0,0,0-1.61,0l-1.88,1.88a.31.31,0,0,0-.09.22.308.308,0,0,0,.32.32.31.31,0,0,0,.22-.09l1.88-1.87a.426.426,0,0,1,.37-.17.439.439,0,0,1,.37.2l.4.4a1.229,1.229,0,0,0,.82.33,1.166,1.166,0,0,0,.85-.4l1.88-2.19a.322.322,0,0,0-.03-.47m.6-2.51H5.84a.316.316,0,0,0-.32.32.322.322,0,0,0,.32.32h8.18a.322.322,0,0,0,.32-.32.316.316,0,0,0-.32-.32m0,0H5.84a.316.316,0,0,0-.32.32.322.322,0,0,0,.32.32h8.18a.322.322,0,0,0,.32-.32.316.316,0,0,0-.32-.32m-.6,2.51a.32.32,0,0,0-.45.05l-1.88,2.2a.544.544,0,0,1-.38.17H10.7a.469.469,0,0,1-.35-.15l-.43-.43a1.147,1.147,0,0,0-1.61,0l-1.88,1.88a.31.31,0,0,0-.09.22.308.308,0,0,0,.32.32.31.31,0,0,0,.22-.09l1.88-1.87a.426.426,0,0,1,.37-.17.439.439,0,0,1,.37.2l.4.4a1.229,1.229,0,0,0,.82.33,1.166,1.166,0,0,0,.85-.4l1.88-2.19a.322.322,0,0,0-.03-.47M9.93,508.4H5.84a.322.322,0,0,0-.32.32.316.316,0,0,0,.32.32H9.93a.316.316,0,0,0,.32-.32.322.322,0,0,0-.32-.32m0,0H5.84a.322.322,0,0,0-.32.32.316.316,0,0,0,.32.32H9.93a.316.316,0,0,0,.32-.32.322.322,0,0,0-.32-.32m3.49,5.79a.32.32,0,0,0-.45.05l-1.88,2.2a.544.544,0,0,1-.38.17H10.7a.469.469,0,0,1-.35-.15l-.43-.43a1.147,1.147,0,0,0-1.61,0l-1.88,1.88a.31.31,0,0,0-.09.22.308.308,0,0,0,.32.32.31.31,0,0,0,.22-.09l1.88-1.87a.426.426,0,0,1,.37-.17.439.439,0,0,1,.37.2l.4.4a1.229,1.229,0,0,0,.82.33,1.166,1.166,0,0,0,.85-.4l1.88-2.19a.322.322,0,0,0-.03-.47m.6-2.51H5.84a.316.316,0,0,0-.32.32.322.322,0,0,0,.32.32h8.18a.322.322,0,0,0,.32-.32.316.316,0,0,0-.32-.32m0,0H5.84a.316.316,0,0,0-.32.32.322.322,0,0,0,.32.32h8.18a.322.322,0,0,0,.32-.32.316.316,0,0,0-.32-.32m-.6,2.51a.32.32,0,0,0-.45.05l-1.88,2.2a.544.544,0,0,1-.38.17H10.7a.469.469,0,0,1-.35-.15l-.43-.43a1.147,1.147,0,0,0-1.61,0l-1.88,1.88a.31.31,0,0,0-.09.22.308.308,0,0,0,.32.32.31.31,0,0,0,.22-.09l1.88-1.87a.426.426,0,0,1,.37-.17.439.439,0,0,1,.37.2l.4.4a1.229,1.229,0,0,0,.82.33,1.166,1.166,0,0,0,.85-.4l1.88-2.19a.322.322,0,0,0-.03-.47M9.93,508.4H5.84a.322.322,0,0,0-.32.32.316.316,0,0,0,.32.32H9.93a.316.316,0,0,0,.32-.32.322.322,0,0,0-.32-.32" transform="translate(-2.25 -503.9)" fill="#fff"/>
</svg>
