<svg xmlns="http://www.w3.org/2000/svg" width="16.294" height="17.17" viewBox="0 0 16.294 17.17">
  <path id="Path_51605" data-name="Path 51605" d="M13.08,425.17a4.661,4.661,0,0,0-1.59-1.5,4.414,4.414,0,0,0-2.05-.51,4.325,4.325,0,1,0,4.33,4.33,4.459,4.459,0,0,0-.69-2.32m-1.4,5.13a3.393,3.393,0,0,1-4.47,0L7,430.12l.21-.19a3.393,3.393,0,0,1,4.47,0l.21.19Zm-2.96-2.82v-.25h.05a.663.663,0,0,1,.68-.47.779.779,0,0,1,.71.7.72.72,0,1,1-1.44.02m3.65,2.23-.22-.19a4.349,4.349,0,0,0-1.46-.84l-.31-.11.19-.27a1.318,1.318,0,0,0,.25-.81v-.04a1.357,1.357,0,0,0-.41-.96,1.32,1.32,0,0,0-.97-.39,1.383,1.383,0,0,0-1.12,2.19l.21.27-.33.11a4.212,4.212,0,0,0-1.46.85l-.22.19-.16-.25a3.667,3.667,0,0,1-.58-1.93v-.08a3.634,3.634,0,0,1,3.63-3.59,4.312,4.312,0,0,1,1.75.41l.06.03a3.272,3.272,0,0,1,.77.57,3.477,3.477,0,0,1,.53.67,3.85,3.85,0,0,1,.59,1.98,3.369,3.369,0,0,1-.59,1.95Zm.71-4.54a4.661,4.661,0,0,0-1.59-1.5,4.414,4.414,0,0,0-2.05-.51,4.325,4.325,0,1,0,4.33,4.33,4.459,4.459,0,0,0-.69-2.32m-1.4,5.13a3.393,3.393,0,0,1-4.47,0L7,430.12l.21-.19a3.393,3.393,0,0,1,4.47,0l.21.19Zm-2.96-2.82v-.25h.05a.663.663,0,0,1,.68-.47.779.779,0,0,1,.71.7.72.72,0,1,1-1.44.02m3.65,2.23-.22-.19a4.349,4.349,0,0,0-1.46-.84l-.31-.11.19-.27a1.318,1.318,0,0,0,.25-.81v-.04a1.357,1.357,0,0,0-.41-.96,1.32,1.32,0,0,0-.97-.39,1.383,1.383,0,0,0-1.12,2.19l.21.27-.33.11a4.212,4.212,0,0,0-1.46.85l-.22.19-.16-.25a3.667,3.667,0,0,1-.58-1.93v-.08a3.634,3.634,0,0,1,3.63-3.59,4.312,4.312,0,0,1,1.75.41l.06.03a3.272,3.272,0,0,1,.77.57,3.477,3.477,0,0,1,.53.67,3.85,3.85,0,0,1,.59,1.98,3.369,3.369,0,0,1-.59,1.95Zm.71-4.54a4.661,4.661,0,0,0-1.59-1.5,4.414,4.414,0,0,0-2.05-.51,4.325,4.325,0,1,0,4.33,4.33,4.459,4.459,0,0,0-.69-2.32m-1.4,5.13a3.393,3.393,0,0,1-4.47,0L7,430.12l.21-.19a3.393,3.393,0,0,1,4.47,0l.21.19Zm-2.96-2.82v-.25h.05a.663.663,0,0,1,.68-.47.779.779,0,0,1,.71.7.72.72,0,1,1-1.44.02m3.65,2.23-.22-.19a4.349,4.349,0,0,0-1.46-.84l-.31-.11.19-.27a1.318,1.318,0,0,0,.25-.81v-.04a1.357,1.357,0,0,0-.41-.96,1.32,1.32,0,0,0-.97-.39,1.383,1.383,0,0,0-1.12,2.19l.21.27-.33.11a4.212,4.212,0,0,0-1.46.85l-.22.19-.16-.25a3.667,3.667,0,0,1-.58-1.93v-.08a3.634,3.634,0,0,1,3.63-3.59,4.312,4.312,0,0,1,1.75.41l.06.03a3.272,3.272,0,0,1,.77.57,3.477,3.477,0,0,1,.53.67,3.85,3.85,0,0,1,.59,1.98,3.369,3.369,0,0,1-.59,1.95Zm.71-4.54a4.661,4.661,0,0,0-1.59-1.5,4.414,4.414,0,0,0-2.05-.51,4.325,4.325,0,1,0,4.33,4.33,4.459,4.459,0,0,0-.69-2.32m-1.4,5.13a3.393,3.393,0,0,1-4.47,0L7,430.12l.21-.19a3.393,3.393,0,0,1,4.47,0l.21.19Zm-2.96-2.82v-.25h.05a.663.663,0,0,1,.68-.47.779.779,0,0,1,.71.7.72.72,0,1,1-1.44.02m3.65,2.23-.22-.19a4.349,4.349,0,0,0-1.46-.84l-.31-.11.19-.27a1.318,1.318,0,0,0,.25-.81v-.04a1.357,1.357,0,0,0-.41-.96,1.32,1.32,0,0,0-.97-.39,1.383,1.383,0,0,0-1.12,2.19l.21.27-.33.11a4.212,4.212,0,0,0-1.46.85l-.22.19-.16-.25a3.667,3.667,0,0,1-.58-1.93v-.08a3.634,3.634,0,0,1,3.63-3.59,4.312,4.312,0,0,1,1.75.41l.06.03a3.272,3.272,0,0,1,.77.57,3.477,3.477,0,0,1,.53.67,3.85,3.85,0,0,1,.59,1.98,3.369,3.369,0,0,1-.59,1.95Zm.71-4.54a4.661,4.661,0,0,0-1.59-1.5,4.414,4.414,0,0,0-2.05-.51,4.325,4.325,0,1,0,4.33,4.33,4.459,4.459,0,0,0-.69-2.32m-1.4,5.13a3.393,3.393,0,0,1-4.47,0L7,430.12l.21-.19a3.393,3.393,0,0,1,4.47,0l.21.19Zm-2.96-2.82v-.25h.05a.663.663,0,0,1,.68-.47.779.779,0,0,1,.71.7.72.72,0,1,1-1.44.02m3.65,2.23-.22-.19a4.349,4.349,0,0,0-1.46-.84l-.31-.11.19-.27a1.318,1.318,0,0,0,.25-.81v-.04a1.357,1.357,0,0,0-.41-.96,1.32,1.32,0,0,0-.97-.39,1.383,1.383,0,0,0-1.12,2.19l.21.27-.33.11a4.212,4.212,0,0,0-1.46.85l-.22.19-.16-.25a3.667,3.667,0,0,1-.58-1.93v-.08a3.634,3.634,0,0,1,3.63-3.59,4.312,4.312,0,0,1,1.75.41l.06.03a3.272,3.272,0,0,1,.77.57,3.477,3.477,0,0,1,.53.67,3.85,3.85,0,0,1,.59,1.98,3.369,3.369,0,0,1-.59,1.95Zm.71-4.54a4.661,4.661,0,0,0-1.59-1.5,4.414,4.414,0,0,0-2.05-.51,4.325,4.325,0,1,0,4.33,4.33,4.459,4.459,0,0,0-.69-2.32m-1.4,5.13a3.393,3.393,0,0,1-4.47,0L7,430.12l.21-.19a3.393,3.393,0,0,1,4.47,0l.21.19Zm-2.96-2.82v-.25h.05a.663.663,0,0,1,.68-.47.779.779,0,0,1,.71.7.72.72,0,1,1-1.44.02m3.65,2.23-.22-.19a4.349,4.349,0,0,0-1.46-.84l-.31-.11.19-.27a1.318,1.318,0,0,0,.25-.81v-.04a1.357,1.357,0,0,0-.41-.96,1.32,1.32,0,0,0-.97-.39,1.383,1.383,0,0,0-1.12,2.19l.21.27-.33.11a4.212,4.212,0,0,0-1.46.85l-.22.19-.16-.25a3.667,3.667,0,0,1-.58-1.93v-.08a3.634,3.634,0,0,1,3.63-3.59,4.312,4.312,0,0,1,1.75.41l.06.03a3.272,3.272,0,0,1,.77.57,3.477,3.477,0,0,1,.53.67,3.85,3.85,0,0,1,.59,1.98,3.369,3.369,0,0,1-.59,1.95Zm.71-4.54a4.661,4.661,0,0,0-1.59-1.5,4.414,4.414,0,0,0-2.05-.51,4.325,4.325,0,1,0,4.33,4.33,4.459,4.459,0,0,0-.69-2.32m-1.4,5.13a3.393,3.393,0,0,1-4.47,0L7,430.12l.21-.19a3.393,3.393,0,0,1,4.47,0l.21.19Zm-2.96-2.82v-.25h.05a.663.663,0,0,1,.68-.47.779.779,0,0,1,.71.7.72.72,0,1,1-1.44.02m3.65,2.23-.22-.19a4.349,4.349,0,0,0-1.46-.84l-.31-.11.19-.27a1.318,1.318,0,0,0,.25-.81v-.04a1.357,1.357,0,0,0-.41-.96,1.32,1.32,0,0,0-.97-.39,1.383,1.383,0,0,0-1.12,2.19l.21.27-.33.11a4.212,4.212,0,0,0-1.46.85l-.22.19-.16-.25a3.667,3.667,0,0,1-.58-1.93v-.08a3.634,3.634,0,0,1,3.63-3.59,4.312,4.312,0,0,1,1.75.41l.06.03a3.272,3.272,0,0,1,.77.57,3.477,3.477,0,0,1,.53.67,3.85,3.85,0,0,1,.59,1.98,3.369,3.369,0,0,1-.59,1.95Zm.71-4.54a4.661,4.661,0,0,0-1.59-1.5,4.414,4.414,0,0,0-2.05-.51,4.325,4.325,0,1,0,4.33,4.33,4.459,4.459,0,0,0-.69-2.32m-1.4,5.13a3.393,3.393,0,0,1-4.47,0L7,430.12l.21-.19a3.393,3.393,0,0,1,4.47,0l.21.19Zm-2.96-2.82v-.25h.05a.663.663,0,0,1,.68-.47.779.779,0,0,1,.71.7.72.72,0,1,1-1.44.02m3.65,2.23-.22-.19a4.349,4.349,0,0,0-1.46-.84l-.31-.11.19-.27a1.318,1.318,0,0,0,.25-.81v-.04a1.357,1.357,0,0,0-.41-.96,1.32,1.32,0,0,0-.97-.39,1.383,1.383,0,0,0-1.12,2.19l.21.27-.33.11a4.212,4.212,0,0,0-1.46.85l-.22.19-.16-.25a3.667,3.667,0,0,1-.58-1.93v-.08a3.634,3.634,0,0,1,3.63-3.59,4.312,4.312,0,0,1,1.75.41l.06.03a3.272,3.272,0,0,1,.77.57,3.477,3.477,0,0,1,.53.67,3.85,3.85,0,0,1,.59,1.98,3.369,3.369,0,0,1-.59,1.95Zm5.2.28a1.1,1.1,0,0,0-.5-.62c-.18-.09-.53-.29-.8-.44-.24-.14-.32-.19-.36-.21l-.07-.04a.363.363,0,0,1-.13-.19l-.03-.09.03-.08a5.7,5.7,0,0,0,0-1.65.394.394,0,0,1,.13-.34l1.23-.7a.987.987,0,0,0,.49-.62,1.044,1.044,0,0,0-.09-.81l-1.1-1.88a1.04,1.04,0,0,0-.91-.54h-.01a1,1,0,0,0-.51.14l-1.24.69-.16.02-.04-.02a1.06,1.06,0,0,1-.39-.21,5.179,5.179,0,0,0-1.15-.65.423.423,0,0,1-.3-.37v-1.45a1.111,1.111,0,0,0-1.1-1.03H8.34a1.049,1.049,0,0,0-1.03,1.07v1.37c0,.24-.18.33-.45.45a5.557,5.557,0,0,0-1.22.73.347.347,0,0,1-.27.1.453.453,0,0,1-.16-.03l-1.22-.67a1.073,1.073,0,0,0-1.44.4l-1.09,1.89a1.061,1.061,0,0,0-.1.8.987.987,0,0,0,.49.62l1.19.66c.21.12.2.3.17.6a6.392,6.392,0,0,0,.01,1.45.459.459,0,0,1-.13.34l-.05.04-1.19.66a1.013,1.013,0,0,0-.49.62,1.042,1.042,0,0,0,.1.81l1.09,1.88a1.056,1.056,0,0,0,.92.54h.01a1.135,1.135,0,0,0,.51-.13l1.19-.66a.3.3,0,0,1,.15-.06h.06l.04.02a.948.948,0,0,1,.37.2,6.323,6.323,0,0,0,1.23.67.416.416,0,0,1,.27.29l.01.07v1.36a1.074,1.074,0,0,0,1.04,1.08l2.19-.01a1.088,1.088,0,0,0,1.08-1.08v-1.36a.368.368,0,0,1,.29-.36l.04-.02a5.981,5.981,0,0,0,1.13-.64,1.019,1.019,0,0,1,.4-.21l.04-.01h.04a.329.329,0,0,1,.19.06l1.19.65a1.038,1.038,0,0,0,.54.14,1,1,0,0,0,.89-.53l1.1-1.9a1.01,1.01,0,0,0,.1-.81m-.73.47-1.08,1.87a.419.419,0,0,1-.38.24l-.17-.04-1.17-.65a1.182,1.182,0,0,0-.55-.14h-.01a1.077,1.077,0,0,0-.64.22,5,5,0,0,1-1.2.71,1.094,1.094,0,0,0-.69,1v1.36a.414.414,0,0,1-.41.42H8.34a.377.377,0,0,1-.37-.42v-1.36a1.062,1.062,0,0,0-.68-.99,5.688,5.688,0,0,1-1.21-.72,1.081,1.081,0,0,0-.65-.24,1.025,1.025,0,0,0-.53.16c-.4.22-.67.38-.85.49a1.8,1.8,0,0,1-.46.23l-.04.01-.13-.01c-.15-.04-.18-.08-.4-.47-.18-.31-.45-.78-.95-1.61a.331.331,0,0,1-.05-.29.37.37,0,0,1,.17-.25l1.19-.66a1.1,1.1,0,0,0,.52-1.03l-.01-.09a5.624,5.624,0,0,1,0-1.42,1.023,1.023,0,0,0-.51-1.05l-1.18-.65a.41.41,0,0,1-.13-.56c.43-.72.69-1.17.87-1.47.29-.51.31-.54.46-.58l.14-.02.04.01a1.745,1.745,0,0,1,.49.25c.15.09.42.25.82.47a1.182,1.182,0,0,0,.55.14,1.055,1.055,0,0,0,.64-.22,5.688,5.688,0,0,1,1.21-.72,1.075,1.075,0,0,0,.68-1v-1.44a.405.405,0,0,1,.32-.41l2.28-.01.04.01a.387.387,0,0,1,.24.12.406.406,0,0,1,.1.3v1.35a1.167,1.167,0,0,0,.69,1,4.965,4.965,0,0,1,1.21.72,1.068,1.068,0,0,0,.63.22,1.464,1.464,0,0,0,.57-.15l1.18-.66a.394.394,0,0,1,.2-.06.407.407,0,0,1,.32.18c.46.82.74,1.28.91,1.56.26.43.29.48.26.63-.04.17-.12.21-.56.45-.2.11-.46.25-.81.46a1,1,0,0,0-.52,1.03,5.527,5.527,0,0,1,0,1.52,1.1,1.1,0,0,0,.52,1.04l1.17.65a.381.381,0,0,1,.19.25.405.405,0,0,1-.07.32m-5.35-6.79a4.414,4.414,0,0,0-2.05-.51,4.325,4.325,0,1,0,4.33,4.33,4.459,4.459,0,0,0-.69-2.32,4.661,4.661,0,0,0-1.59-1.5m.19,6.63a3.393,3.393,0,0,1-4.47,0L7,430.12l.21-.19a3.393,3.393,0,0,1,4.47,0l.21.19Zm-2.96-2.82v-.25h.05a.663.663,0,0,1,.68-.47.779.779,0,0,1,.71.7.72.72,0,1,1-1.44.02m3.8,1.99-.15.24-.22-.19a4.349,4.349,0,0,0-1.46-.84l-.31-.11.19-.27a1.318,1.318,0,0,0,.25-.81v-.04a1.357,1.357,0,0,0-.41-.96,1.32,1.32,0,0,0-.97-.39,1.383,1.383,0,0,0-1.12,2.19l.21.27-.33.11a4.212,4.212,0,0,0-1.46.85l-.22.19-.16-.25a3.667,3.667,0,0,1-.58-1.93v-.08a3.634,3.634,0,0,1,3.63-3.59,4.312,4.312,0,0,1,1.75.41l.06.03a3.272,3.272,0,0,1,.77.57,3.477,3.477,0,0,1,.53.67,3.85,3.85,0,0,1,.59,1.98,3.369,3.369,0,0,1-.59,1.95m.56-4.3a4.661,4.661,0,0,0-1.59-1.5,4.414,4.414,0,0,0-2.05-.51,4.325,4.325,0,1,0,4.33,4.33,4.459,4.459,0,0,0-.69-2.32m-1.4,5.13a3.393,3.393,0,0,1-4.47,0L7,430.12l.21-.19a3.393,3.393,0,0,1,4.47,0l.21.19Zm-2.96-2.82v-.25h.05a.663.663,0,0,1,.68-.47.779.779,0,0,1,.71.7.72.72,0,1,1-1.44.02m3.65,2.23-.22-.19a4.349,4.349,0,0,0-1.46-.84l-.31-.11.19-.27a1.318,1.318,0,0,0,.25-.81v-.04a1.357,1.357,0,0,0-.41-.96,1.32,1.32,0,0,0-.97-.39,1.383,1.383,0,0,0-1.12,2.19l.21.27-.33.11a4.212,4.212,0,0,0-1.46.85l-.22.19-.16-.25a3.667,3.667,0,0,1-.58-1.93v-.08a3.634,3.634,0,0,1,3.63-3.59,4.312,4.312,0,0,1,1.75.41l.06.03a3.272,3.272,0,0,1,.77.57,3.477,3.477,0,0,1,.53.67,3.85,3.85,0,0,1,.59,1.98,3.369,3.369,0,0,1-.59,1.95Zm.71-4.54a4.661,4.661,0,0,0-1.59-1.5,4.414,4.414,0,0,0-2.05-.51,4.325,4.325,0,1,0,4.33,4.33,4.459,4.459,0,0,0-.69-2.32m-1.4,5.13a3.393,3.393,0,0,1-4.47,0L7,430.12l.21-.19a3.393,3.393,0,0,1,4.47,0l.21.19Zm-2.96-2.82v-.25h.05a.663.663,0,0,1,.68-.47.779.779,0,0,1,.71.7.72.72,0,1,1-1.44.02m3.65,2.23-.22-.19a4.349,4.349,0,0,0-1.46-.84l-.31-.11.19-.27a1.318,1.318,0,0,0,.25-.81v-.04a1.357,1.357,0,0,0-.41-.96,1.32,1.32,0,0,0-.97-.39,1.383,1.383,0,0,0-1.12,2.19l.21.27-.33.11a4.212,4.212,0,0,0-1.46.85l-.22.19-.16-.25a3.667,3.667,0,0,1-.58-1.93v-.08a3.634,3.634,0,0,1,3.63-3.59,4.312,4.312,0,0,1,1.75.41l.06.03a3.272,3.272,0,0,1,.77.57,3.477,3.477,0,0,1,.53.67,3.85,3.85,0,0,1,.59,1.98,3.369,3.369,0,0,1-.59,1.95Zm.71-4.54a4.661,4.661,0,0,0-1.59-1.5,4.414,4.414,0,0,0-2.05-.51,4.325,4.325,0,1,0,4.33,4.33,4.459,4.459,0,0,0-.69-2.32m-1.4,5.13a3.393,3.393,0,0,1-4.47,0L7,430.12l.21-.19a3.393,3.393,0,0,1,4.47,0l.21.19Zm-2.96-2.82v-.25h.05a.663.663,0,0,1,.68-.47.779.779,0,0,1,.71.7.72.72,0,1,1-1.44.02m3.65,2.23-.22-.19a4.349,4.349,0,0,0-1.46-.84l-.31-.11.19-.27a1.318,1.318,0,0,0,.25-.81v-.04a1.357,1.357,0,0,0-.41-.96,1.32,1.32,0,0,0-.97-.39,1.383,1.383,0,0,0-1.12,2.19l.21.27-.33.11a4.212,4.212,0,0,0-1.46.85l-.22.19-.16-.25a3.667,3.667,0,0,1-.58-1.93v-.08a3.634,3.634,0,0,1,3.63-3.59,4.312,4.312,0,0,1,1.75.41l.06.03a3.272,3.272,0,0,1,.77.57,3.477,3.477,0,0,1,.53.67,3.85,3.85,0,0,1,.59,1.98,3.369,3.369,0,0,1-.59,1.95Zm.71-4.54a4.661,4.661,0,0,0-1.59-1.5,4.414,4.414,0,0,0-2.05-.51,4.325,4.325,0,1,0,4.33,4.33,4.459,4.459,0,0,0-.69-2.32m-1.4,5.13a3.393,3.393,0,0,1-4.47,0L7,430.12l.21-.19a3.393,3.393,0,0,1,4.47,0l.21.19Zm-2.96-2.82v-.25h.05a.663.663,0,0,1,.68-.47.779.779,0,0,1,.71.7.72.72,0,1,1-1.44.02m3.65,2.23-.22-.19a4.349,4.349,0,0,0-1.46-.84l-.31-.11.19-.27a1.318,1.318,0,0,0,.25-.81v-.04a1.357,1.357,0,0,0-.41-.96,1.32,1.32,0,0,0-.97-.39,1.383,1.383,0,0,0-1.12,2.19l.21.27-.33.11a4.212,4.212,0,0,0-1.46.85l-.22.19-.16-.25a3.667,3.667,0,0,1-.58-1.93v-.08a3.634,3.634,0,0,1,3.63-3.59,4.312,4.312,0,0,1,1.75.41l.06.03a3.272,3.272,0,0,1,.77.57,3.477,3.477,0,0,1,.53.67,3.85,3.85,0,0,1,.59,1.98,3.369,3.369,0,0,1-.59,1.95Zm.71-4.54a4.661,4.661,0,0,0-1.59-1.5,4.414,4.414,0,0,0-2.05-.51,4.325,4.325,0,1,0,4.33,4.33,4.459,4.459,0,0,0-.69-2.32m-1.4,5.13a3.393,3.393,0,0,1-4.47,0L7,430.12l.21-.19a3.393,3.393,0,0,1,4.47,0l.21.19Zm-2.96-2.82v-.25h.05a.663.663,0,0,1,.68-.47.779.779,0,0,1,.71.7.72.72,0,1,1-1.44.02m3.65,2.23-.22-.19a4.349,4.349,0,0,0-1.46-.84l-.31-.11.19-.27a1.318,1.318,0,0,0,.25-.81v-.04a1.357,1.357,0,0,0-.41-.96,1.32,1.32,0,0,0-.97-.39,1.383,1.383,0,0,0-1.12,2.19l.21.27-.33.11a4.212,4.212,0,0,0-1.46.85l-.22.19-.16-.25a3.667,3.667,0,0,1-.58-1.93v-.08a3.634,3.634,0,0,1,3.63-3.59,4.312,4.312,0,0,1,1.75.41l.06.03a3.272,3.272,0,0,1,.77.57,3.477,3.477,0,0,1,.53.67,3.85,3.85,0,0,1,.59,1.98,3.369,3.369,0,0,1-.59,1.95Zm.71-4.54a4.661,4.661,0,0,0-1.59-1.5,4.414,4.414,0,0,0-2.05-.51,4.325,4.325,0,1,0,4.33,4.33,4.459,4.459,0,0,0-.69-2.32m-1.4,5.13a3.393,3.393,0,0,1-4.47,0L7,430.12l.21-.19a3.393,3.393,0,0,1,4.47,0l.21.19Zm-2.96-2.82v-.25h.05a.663.663,0,0,1,.68-.47.779.779,0,0,1,.71.7.72.72,0,1,1-1.44.02m3.65,2.23-.22-.19a4.349,4.349,0,0,0-1.46-.84l-.31-.11.19-.27a1.318,1.318,0,0,0,.25-.81v-.04a1.357,1.357,0,0,0-.41-.96,1.32,1.32,0,0,0-.97-.39,1.383,1.383,0,0,0-1.12,2.19l.21.27-.33.11a4.212,4.212,0,0,0-1.46.85l-.22.19-.16-.25a3.667,3.667,0,0,1-.58-1.93v-.08a3.634,3.634,0,0,1,3.63-3.59,4.312,4.312,0,0,1,1.75.41l.06.03a3.272,3.272,0,0,1,.77.57,3.477,3.477,0,0,1,.53.67,3.85,3.85,0,0,1,.59,1.98,3.369,3.369,0,0,1-.59,1.95Z" transform="translate(-1.319 -418.9)" fill="#fff"/>
</svg>
