<svg xmlns="http://www.w3.org/2000/svg" width="18.204" height="19.376" viewBox="0 0 18.204 19.376">
  <path id="Path_51611" data-name="Path 51611" d="M15.45,57.84H13.83V56.22c0-.15-.27-.15-.27,0v1.76a.142.142,0,0,0,.13.14h1.76a.143.143,0,0,0,.14-.14.137.137,0,0,0-.14-.14m0,0H13.83V56.22c0-.15-.27-.15-.27,0v1.76a.142.142,0,0,0,.13.14h1.76a.143.143,0,0,0,.14-.14.137.137,0,0,0-.14-.14m0,0H13.83V56.22c0-.15-.27-.15-.27,0v1.76a.142.142,0,0,0,.13.14h1.76a.143.143,0,0,0,.14-.14.137.137,0,0,0-.14-.14m0,0H13.83V56.22c0-.15-.27-.15-.27,0v1.76a.142.142,0,0,0,.13.14h1.76a.143.143,0,0,0,.14-.14.137.137,0,0,0-.14-.14m0,0H13.83V56.22c0-.15-.27-.15-.27,0v1.76a.142.142,0,0,0,.13.14h1.76a.143.143,0,0,0,.14-.14.137.137,0,0,0-.14-.14m0,0H13.83V56.22c0-.15-.27-.15-.27,0v1.76a.142.142,0,0,0,.13.14h1.76a.143.143,0,0,0,.14-.14.137.137,0,0,0-.14-.14m0,0H13.83V56.22c0-.15-.27-.15-.27,0v1.76a.142.142,0,0,0,.13.14h1.76a.143.143,0,0,0,.14-.14.137.137,0,0,0-.14-.14m0,0H13.83V56.22c0-.15-.27-.15-.27,0v1.76a.142.142,0,0,0,.13.14h1.76a.143.143,0,0,0,.14-.14.137.137,0,0,0-.14-.14m3.04-1.21a4.63,4.63,0,0,0-2.05-2.91l-.18-.11V47.04a2.958,2.958,0,0,0-2.94-2.94H12.03v-.87a.324.324,0,0,0-.31-.3.3.3,0,0,0-.24.08.336.336,0,0,0-.11.23v.86H5.29v-.87a.326.326,0,0,0-.32-.3.307.307,0,0,0-.24.08.326.326,0,0,0-.1.23v.86H3.34A2.945,2.945,0,0,0,.4,47.04v9.98a2.945,2.945,0,0,0,2.94,2.94H10l-.26-.27.28.45a4.68,4.68,0,0,0,4.95,2.05,4.655,4.655,0,0,0,3.52-5.56M1.06,47.04a2.285,2.285,0,0,1,2.28-2.28H4.63v.88a.346.346,0,0,0,.1.26.315.315,0,0,0,.24.09.3.3,0,0,0,.23-.11.317.317,0,0,0,.09-.23v-.89h6.08v.88a.35.35,0,0,0,.11.26.308.308,0,0,0,.23.09.326.326,0,0,0,.32-.34v-.89h1.29a2.288,2.288,0,0,1,2.28,2.28v1.73H1.06ZM9.45,58.81l.12.49H3.34a2.279,2.279,0,0,1-2.28-2.28V49.41H15.6v3.87l-.49-.13a4.5,4.5,0,0,0-2.36,0,4.621,4.621,0,0,0-3.3,5.66m4.49,2.84a4,4,0,1,1,4-4,4,4,0,0,1-4,4m1.51-3.81H13.83V56.22c0-.15-.27-.15-.27,0v1.76a.142.142,0,0,0,.13.14h1.76a.143.143,0,0,0,.14-.14.137.137,0,0,0-.14-.14m0,0H13.83V56.22c0-.15-.27-.15-.27,0v1.76a.142.142,0,0,0,.13.14h1.76a.143.143,0,0,0,.14-.14.137.137,0,0,0-.14-.14m0,0H13.83V56.22c0-.15-.27-.15-.27,0v1.76a.142.142,0,0,0,.13.14h1.76a.143.143,0,0,0,.14-.14.137.137,0,0,0-.14-.14m0,0H13.83V56.22c0-.15-.27-.15-.27,0v1.76a.142.142,0,0,0,.13.14h1.76a.143.143,0,0,0,.14-.14.137.137,0,0,0-.14-.14m0,0H13.83V56.22c0-.15-.27-.15-.27,0v1.76a.142.142,0,0,0,.13.14h1.76a.143.143,0,0,0,.14-.14.137.137,0,0,0-.14-.14m0,0H13.83V56.22c0-.15-.27-.15-.27,0v1.76a.142.142,0,0,0,.13.14h1.76a.143.143,0,0,0,.14-.14.137.137,0,0,0-.14-.14m0,0H13.83V56.22c0-.15-.27-.15-.27,0v1.76a.142.142,0,0,0,.13.14h1.76a.143.143,0,0,0,.14-.14.137.137,0,0,0-.14-.14" transform="translate(-0.4 -42.928)" fill="#fff"/>
</svg>
