<svg xmlns="http://www.w3.org/2000/svg" width="15.81" height="17.002" viewBox="0 0 15.81 17.002">
  <path id="Path_51607" data-name="Path 51607" d="M14.82,258.89H10.73a.326.326,0,0,0-.3.32.3.3,0,0,0,.08.24.336.336,0,0,0,.23.11h4.07a.35.35,0,0,0,.36-.35.342.342,0,0,0-.35-.32m-6.18-1.04a.326.326,0,0,0-.23-.1.29.29,0,0,0-.24.09l-1.51,1.5-.93-.93a.337.337,0,0,0-.45-.01.384.384,0,0,0-.11.23.333.333,0,0,0,.08.24l1.1,1.1h.14l.01.13a.323.323,0,0,0,.39-.06l1.75-1.74a.326.326,0,0,0,0-.45m6.18,6.29H10.73a.312.312,0,0,0-.3.32.286.286,0,0,0,.08.23.3.3,0,0,0,.23.11h4.07a.331.331,0,1,0,.01-.66m-6.18-1.05a.332.332,0,0,0-.47-.01l-1.51,1.5-.93-.93a.337.337,0,0,0-.45,0,.342.342,0,0,0-.03.47l1.1,1.09.07.08a.352.352,0,0,0,.47,0l1.75-1.75a.326.326,0,0,0,0-.45m6.18,1.05H10.73a.312.312,0,0,0-.3.32.286.286,0,0,0,.08.23.3.3,0,0,0,.23.11h4.07a.331.331,0,1,0,.01-.66m0-5.25H10.73a.326.326,0,0,0-.3.32.3.3,0,0,0,.08.24.336.336,0,0,0,.23.11h4.07a.35.35,0,0,0,.36-.35.342.342,0,0,0-.35-.32m-6.18-1.04a.326.326,0,0,0-.23-.1.29.29,0,0,0-.24.09l-1.51,1.5-.93-.93a.337.337,0,0,0-.45-.01.384.384,0,0,0-.11.23.333.333,0,0,0,.08.24l1.1,1.1h.14l.01.13a.323.323,0,0,0,.39-.06l1.75-1.74a.326.326,0,0,0,0-.45m0,5.24a.332.332,0,0,0-.47-.01l-1.51,1.5-.93-.93a.337.337,0,0,0-.45,0,.342.342,0,0,0-.03.47l1.1,1.09.07.08a.352.352,0,0,0,.47,0l1.75-1.75a.326.326,0,0,0,0-.45m0,0a.332.332,0,0,0-.47-.01l-1.51,1.5-.93-.93a.337.337,0,0,0-.45,0,.342.342,0,0,0-.03.47l1.1,1.09.07.08a.352.352,0,0,0,.47,0l1.75-1.75a.326.326,0,0,0,0-.45m0-5.24a.326.326,0,0,0-.23-.1.29.29,0,0,0-.24.09l-1.51,1.5-.93-.93a.337.337,0,0,0-.45-.01.384.384,0,0,0-.11.23.333.333,0,0,0,.08.24l1.1,1.1h.14l.01.13a.323.323,0,0,0,.39-.06l1.75-1.74a.326.326,0,0,0,0-.45m6.18,1.04H10.73a.326.326,0,0,0-.3.32.3.3,0,0,0,.08.24.336.336,0,0,0,.23.11h4.07a.35.35,0,0,0,.36-.35.342.342,0,0,0-.35-.32m0,5.25H10.73a.312.312,0,0,0-.3.32.286.286,0,0,0,.08.23.3.3,0,0,0,.23.11h4.07a.331.331,0,1,0,.01-.66m0,0H10.73a.312.312,0,0,0-.3.32.286.286,0,0,0,.08.23.3.3,0,0,0,.23.11h4.07a.331.331,0,1,0,.01-.66m0-5.25H10.73a.326.326,0,0,0-.3.32.3.3,0,0,0,.08.24.336.336,0,0,0,.23.11h4.07a.35.35,0,0,0,.36-.35.342.342,0,0,0-.35-.32m-6.18-1.04a.326.326,0,0,0-.23-.1.29.29,0,0,0-.24.09l-1.51,1.5-.93-.93a.337.337,0,0,0-.45-.01.384.384,0,0,0-.11.23.333.333,0,0,0,.08.24l1.1,1.1h.14l.01.13a.323.323,0,0,0,.39-.06l1.75-1.74a.326.326,0,0,0,0-.45m0,5.24a.332.332,0,0,0-.47-.01l-1.51,1.5-.93-.93a.337.337,0,0,0-.45,0,.342.342,0,0,0-.03.47l1.1,1.09.07.08a.352.352,0,0,0,.47,0l1.75-1.75a.326.326,0,0,0,0-.45m0,0a.332.332,0,0,0-.47-.01l-1.51,1.5-.93-.93a.337.337,0,0,0-.45,0,.342.342,0,0,0-.03.47l1.1,1.09.07.08a.352.352,0,0,0,.47,0l1.75-1.75a.326.326,0,0,0,0-.45m0-5.24a.326.326,0,0,0-.23-.1.29.29,0,0,0-.24.09l-1.51,1.5-.93-.93a.337.337,0,0,0-.45-.01.384.384,0,0,0-.11.23.333.333,0,0,0,.08.24l1.1,1.1h.14l.01.13a.323.323,0,0,0,.39-.06l1.75-1.74a.326.326,0,0,0,0-.45m6.18,1.04H10.73a.326.326,0,0,0-.3.32.3.3,0,0,0,.08.24.336.336,0,0,0,.23.11h4.07a.35.35,0,0,0,.36-.35.342.342,0,0,0-.35-.32m0,5.25H10.73a.312.312,0,0,0-.3.32.286.286,0,0,0,.08.23.3.3,0,0,0,.23.11h4.07a.331.331,0,1,0,.01-.66m0,0H10.73a.312.312,0,0,0-.3.32.286.286,0,0,0,.08.23.3.3,0,0,0,.23.11h4.07a.331.331,0,1,0,.01-.66m0-5.25H10.73a.326.326,0,0,0-.3.32.3.3,0,0,0,.08.24.336.336,0,0,0,.23.11h4.07a.35.35,0,0,0,.36-.35.342.342,0,0,0-.35-.32m-6.18,4.2a.332.332,0,0,0-.47-.01l-1.51,1.5-.93-.93a.337.337,0,0,0-.45,0,.342.342,0,0,0-.03.47l1.1,1.09.07.08a.352.352,0,0,0,.47,0l1.75-1.75a.326.326,0,0,0,0-.45m0-5.24a.326.326,0,0,0-.23-.1.29.29,0,0,0-.24.09l-1.51,1.5-.93-.93a.337.337,0,0,0-.45-.01.384.384,0,0,0-.11.23.333.333,0,0,0,.08.24l1.1,1.1h.14l.01.13a.323.323,0,0,0,.39-.06l1.75-1.74a.326.326,0,0,0,0-.45m0,5.24a.332.332,0,0,0-.47-.01l-1.51,1.5-.93-.93a.337.337,0,0,0-.45,0,.342.342,0,0,0-.03.47l1.1,1.09.07.08a.352.352,0,0,0,.47,0l1.75-1.75a.326.326,0,0,0,0-.45m0-5.24a.326.326,0,0,0-.23-.1.29.29,0,0,0-.24.09l-1.51,1.5-.93-.93a.337.337,0,0,0-.45-.01.384.384,0,0,0-.11.23.333.333,0,0,0,.08.24l1.1,1.1h.14l.01.13a.323.323,0,0,0,.39-.06l1.75-1.74a.326.326,0,0,0,0-.45m6.18,6.29H10.73a.312.312,0,0,0-.3.32.286.286,0,0,0,.08.23.3.3,0,0,0,.23.11h4.07a.331.331,0,1,0,.01-.66m0-5.25H10.73a.326.326,0,0,0-.3.32.3.3,0,0,0,.08.24.336.336,0,0,0,.23.11h4.07a.35.35,0,0,0,.36-.35.342.342,0,0,0-.35-.32m0,5.25H10.73a.312.312,0,0,0-.3.32.286.286,0,0,0,.08.23.3.3,0,0,0,.23.11h4.07a.331.331,0,1,0,.01-.66m-4.08-4.58h4.07a.35.35,0,0,0,.36-.35.342.342,0,0,0-.35-.32H10.73a.326.326,0,0,0-.3.32.3.3,0,0,0,.08.24.336.336,0,0,0,.23.11m-2.33-1.81a.29.29,0,0,0-.24.09l-1.51,1.5-.93-.93a.337.337,0,0,0-.45-.01.384.384,0,0,0-.11.23.333.333,0,0,0,.08.24l1.1,1.1h.14l.01.13a.323.323,0,0,0,.39-.06l1.75-1.74a.325.325,0,0,0-.23-.55m-.24,5.33-1.51,1.5-.93-.93a.337.337,0,0,0-.45,0,.342.342,0,0,0-.03.47l1.1,1.09.07.08a.352.352,0,0,0,.47,0l1.75-1.75a.326.326,0,0,0,0-.45.332.332,0,0,0-.47-.01m7.93-10.01h-.95v-.83a.33.33,0,1,0-.66,0v.83h-4v-.83a.357.357,0,0,0-.11-.27.315.315,0,0,0-.24-.09.3.3,0,0,0-.23.11.341.341,0,0,0-.09.24v.84h-4v-.83a.325.325,0,0,0-.11-.27.281.281,0,0,0-.23-.09.319.319,0,0,0-.24.11.3.3,0,0,0-.08.24v.84H4.21a1.963,1.963,0,0,0-1.96,1.96v11.89a1.963,1.963,0,0,0,1.96,1.96H16.1a1.963,1.963,0,0,0,1.96-1.96V255.03a1.963,1.963,0,0,0-1.96-1.96m1.29,13.85a1.293,1.293,0,0,1-1.29,1.29H4.21a1.3,1.3,0,0,1-1.3-1.29V255.03a1.308,1.308,0,0,1,1.29-1.3h.95v.83a.357.357,0,0,0,.11.27.3.3,0,0,0,.24.09.34.34,0,0,0,.32-.34v-.85h4v.83a.331.331,0,1,0,.66.02v-.85h4v.83a.335.335,0,1,0,.67,0v-.83h.95a1.308,1.308,0,0,1,1.29,1.3Zm-2.57-2.78H10.73a.312.312,0,0,0-.3.32.286.286,0,0,0,.08.23.3.3,0,0,0,.23.11h4.07a.331.331,0,1,0,.01-.66m0-5.25H10.73a.326.326,0,0,0-.3.32.3.3,0,0,0,.08.24.336.336,0,0,0,.23.11h4.07a.35.35,0,0,0,.36-.35.342.342,0,0,0-.35-.32m-6.41-1.14a.29.29,0,0,0-.24.09l-1.51,1.5-.93-.93a.337.337,0,0,0-.45-.01.384.384,0,0,0-.11.23.333.333,0,0,0,.08.24l1.1,1.1h.14l.01.13a.323.323,0,0,0,.39-.06l1.75-1.74a.325.325,0,0,0-.23-.55m-.24,5.33-1.51,1.5-.93-.93a.337.337,0,0,0-.45,0,.342.342,0,0,0-.03.47l1.1,1.09.07.08a.352.352,0,0,0,.47,0l1.75-1.75a.326.326,0,0,0,0-.45.332.332,0,0,0-.47-.01m.47.01a.332.332,0,0,0-.47-.01l-1.51,1.5-.93-.93a.337.337,0,0,0-.45,0,.342.342,0,0,0-.03.47l1.1,1.09.07.08a.352.352,0,0,0,.47,0l1.75-1.75a.326.326,0,0,0,0-.45m0-5.24a.326.326,0,0,0-.23-.1.29.29,0,0,0-.24.09l-1.51,1.5-.93-.93a.337.337,0,0,0-.45-.01.384.384,0,0,0-.11.23.333.333,0,0,0,.08.24l1.1,1.1h.14l.01.13a.323.323,0,0,0,.39-.06l1.75-1.74a.326.326,0,0,0,0-.45m6.18,6.29H10.73a.312.312,0,0,0-.3.32.286.286,0,0,0,.08.23.3.3,0,0,0,.23.11h4.07a.331.331,0,1,0,.01-.66m0-5.25H10.73a.326.326,0,0,0-.3.32.3.3,0,0,0,.08.24.336.336,0,0,0,.23.11h4.07a.35.35,0,0,0,.36-.35.342.342,0,0,0-.35-.32m0,5.25H10.73a.312.312,0,0,0-.3.32.286.286,0,0,0,.08.23.3.3,0,0,0,.23.11h4.07a.331.331,0,1,0,.01-.66m0-5.25H10.73a.326.326,0,0,0-.3.32.3.3,0,0,0,.08.24.336.336,0,0,0,.23.11h4.07a.35.35,0,0,0,.36-.35.342.342,0,0,0-.35-.32m-6.18,4.2a.332.332,0,0,0-.47-.01l-1.51,1.5-.93-.93a.337.337,0,0,0-.45,0,.342.342,0,0,0-.03.47l1.1,1.09.07.08a.352.352,0,0,0,.47,0l1.75-1.75a.326.326,0,0,0,0-.45m0-5.24a.326.326,0,0,0-.23-.1.29.29,0,0,0-.24.09l-1.51,1.5-.93-.93a.337.337,0,0,0-.45-.01.384.384,0,0,0-.11.23.333.333,0,0,0,.08.24l1.1,1.1h.14l.01.13a.323.323,0,0,0,.39-.06l1.75-1.74a.326.326,0,0,0,0-.45m0,5.24a.332.332,0,0,0-.47-.01l-1.51,1.5-.93-.93a.337.337,0,0,0-.45,0,.342.342,0,0,0-.03.47l1.1,1.09.07.08a.352.352,0,0,0,.47,0l1.75-1.75a.326.326,0,0,0,0-.45m0-5.24a.326.326,0,0,0-.23-.1.29.29,0,0,0-.24.09l-1.51,1.5-.93-.93a.337.337,0,0,0-.45-.01.384.384,0,0,0-.11.23.333.333,0,0,0,.08.24l1.1,1.1h.14l.01.13a.323.323,0,0,0,.39-.06l1.75-1.74a.326.326,0,0,0,0-.45m6.18,1.04H10.73a.326.326,0,0,0-.3.32.3.3,0,0,0,.08.24.336.336,0,0,0,.23.11h4.07a.35.35,0,0,0,.36-.35.342.342,0,0,0-.35-.32m0,5.25H10.73a.312.312,0,0,0-.3.32.286.286,0,0,0,.08.23.3.3,0,0,0,.23.11h4.07a.331.331,0,1,0,.01-.66m0,0H10.73a.312.312,0,0,0-.3.32.286.286,0,0,0,.08.23.3.3,0,0,0,.23.11h4.07a.331.331,0,1,0,.01-.66m0-5.25H10.73a.326.326,0,0,0-.3.32.3.3,0,0,0,.08.24.336.336,0,0,0,.23.11h4.07a.35.35,0,0,0,.36-.35.342.342,0,0,0-.35-.32m-6.18-1.04a.326.326,0,0,0-.23-.1.29.29,0,0,0-.24.09l-1.51,1.5-.93-.93a.337.337,0,0,0-.45-.01.384.384,0,0,0-.11.23.333.333,0,0,0,.08.24l1.1,1.1h.14l.01.13a.323.323,0,0,0,.39-.06l1.75-1.74a.326.326,0,0,0,0-.45m0,5.24a.332.332,0,0,0-.47-.01l-1.51,1.5-.93-.93a.337.337,0,0,0-.45,0,.342.342,0,0,0-.03.47l1.1,1.09.07.08a.352.352,0,0,0,.47,0l1.75-1.75a.326.326,0,0,0,0-.45m0,0a.332.332,0,0,0-.47-.01l-1.51,1.5-.93-.93a.337.337,0,0,0-.45,0,.342.342,0,0,0-.03.47l1.1,1.09.07.08a.352.352,0,0,0,.47,0l1.75-1.75a.326.326,0,0,0,0-.45m0-5.24a.326.326,0,0,0-.23-.1.29.29,0,0,0-.24.09l-1.51,1.5-.93-.93a.337.337,0,0,0-.45-.01.384.384,0,0,0-.11.23.333.333,0,0,0,.08.24l1.1,1.1h.14l.01.13a.323.323,0,0,0,.39-.06l1.75-1.74a.326.326,0,0,0,0-.45m6.18,1.04H10.73a.326.326,0,0,0-.3.32.3.3,0,0,0,.08.24.336.336,0,0,0,.23.11h4.07a.35.35,0,0,0,.36-.35.342.342,0,0,0-.35-.32m0,5.25H10.73a.312.312,0,0,0-.3.32.286.286,0,0,0,.08.23.3.3,0,0,0,.23.11h4.07a.331.331,0,1,0,.01-.66m0,0H10.73a.312.312,0,0,0-.3.32.286.286,0,0,0,.08.23.3.3,0,0,0,.23.11h4.07a.331.331,0,1,0,.01-.66m0-5.25H10.73a.326.326,0,0,0-.3.32.3.3,0,0,0,.08.24.336.336,0,0,0,.23.11h4.07a.35.35,0,0,0,.36-.35.342.342,0,0,0-.35-.32m-6.18-1.04a.326.326,0,0,0-.23-.1.29.29,0,0,0-.24.09l-1.51,1.5-.93-.93a.337.337,0,0,0-.45-.01.384.384,0,0,0-.11.23.333.333,0,0,0,.08.24l1.1,1.1h.14l.01.13a.323.323,0,0,0,.39-.06l1.75-1.74a.326.326,0,0,0,0-.45m0,5.24a.332.332,0,0,0-.47-.01l-1.51,1.5-.93-.93a.337.337,0,0,0-.45,0,.342.342,0,0,0-.03.47l1.1,1.09.07.08a.352.352,0,0,0,.47,0l1.75-1.75a.326.326,0,0,0,0-.45" transform="translate(-2.25 -251.878)" fill="#fff"/>
</svg>
