<svg xmlns="http://www.w3.org/2000/svg" width="17.161" height="17.16" viewBox="0 0 17.161 17.16">
  <path id="Path_51608" data-name="Path 51608" d="M9.89,171.42a2.15,2.15,0,1,0,2.15,2.15,2.153,2.153,0,0,0-2.15-2.15m0,3.66a1.515,1.515,0,1,1,1.52-1.51,1.517,1.517,0,0,1-1.52,1.51m.92,1.84H8.98a2.16,2.16,0,0,0-2.15,2.15.314.314,0,0,0,.31.32h.01a.314.314,0,0,0,.31-.32,1.517,1.517,0,0,1,1.52-1.51h1.84a1.515,1.515,0,0,1,1.51,1.51.322.322,0,0,0,.32.32.314.314,0,0,0,.31-.32,2.16,2.16,0,0,0-2.15-2.15m0,0H8.98a2.16,2.16,0,0,0-2.15,2.15.314.314,0,0,0,.31.32h.01a.314.314,0,0,0,.31-.32,1.517,1.517,0,0,1,1.52-1.51h1.84a1.515,1.515,0,0,1,1.51,1.51.322.322,0,0,0,.32.32.314.314,0,0,0,.31-.32,2.16,2.16,0,0,0-2.15-2.15m-.92-5.5a2.15,2.15,0,1,0,2.15,2.15,2.153,2.153,0,0,0-2.15-2.15m0,3.66a1.515,1.515,0,1,1,1.52-1.51,1.517,1.517,0,0,1-1.52,1.51m0-3.66a2.15,2.15,0,1,0,2.15,2.15,2.153,2.153,0,0,0-2.15-2.15m0,3.66a1.515,1.515,0,1,1,1.52-1.51,1.517,1.517,0,0,1-1.52,1.51m.92,1.84H8.98a2.16,2.16,0,0,0-2.15,2.15.314.314,0,0,0,.31.32h.01a.314.314,0,0,0,.31-.32,1.517,1.517,0,0,1,1.52-1.51h1.84a1.515,1.515,0,0,1,1.51,1.51.322.322,0,0,0,.32.32.314.314,0,0,0,.31-.32,2.16,2.16,0,0,0-2.15-2.15m0,0H8.98a2.16,2.16,0,0,0-2.15,2.15.314.314,0,0,0,.31.32h.01a.314.314,0,0,0,.31-.32,1.517,1.517,0,0,1,1.52-1.51h1.84a1.515,1.515,0,0,1,1.51,1.51.322.322,0,0,0,.32.32.314.314,0,0,0,.31-.32,2.16,2.16,0,0,0-2.15-2.15m-.92-5.5a2.15,2.15,0,1,0,2.15,2.15,2.153,2.153,0,0,0-2.15-2.15m0,3.66a1.515,1.515,0,1,1,1.52-1.51,1.517,1.517,0,0,1-1.52,1.51m0-3.66a2.15,2.15,0,1,0,2.15,2.15,2.153,2.153,0,0,0-2.15-2.15m0,3.66a1.515,1.515,0,1,1,1.52-1.51,1.517,1.517,0,0,1-1.52,1.51m.92,1.84H8.98a2.16,2.16,0,0,0-2.15,2.15.314.314,0,0,0,.31.32h.01a.314.314,0,0,0,.31-.32,1.517,1.517,0,0,1,1.52-1.51h1.84a1.515,1.515,0,0,1,1.51,1.51.322.322,0,0,0,.32.32.314.314,0,0,0,.31-.32,2.16,2.16,0,0,0-2.15-2.15m0,0H8.98a2.16,2.16,0,0,0-2.15,2.15.314.314,0,0,0,.31.32h.01a.314.314,0,0,0,.31-.32,1.517,1.517,0,0,1,1.52-1.51h1.84a1.515,1.515,0,0,1,1.51,1.51.322.322,0,0,0,.32.32.314.314,0,0,0,.31-.32,2.16,2.16,0,0,0-2.15-2.15m-.92-1.2a2.15,2.15,0,1,0-2.15-2.15,2.16,2.16,0,0,0,2.15,2.15m0-3.67a1.515,1.515,0,1,1-1.52,1.52,1.519,1.519,0,0,1,1.52-1.52m8.46-.58-7.13-5.15a2.269,2.269,0,0,0-2.63,0l-7.13,5.15a.311.311,0,0,0-.08.44.324.324,0,0,0,.45.08l1.33-.97v9.89a2.16,2.16,0,0,0,2.15,2.15H14.5a2.166,2.166,0,0,0,2.15-2.15v-9.89l1.33.96a.322.322,0,0,0,.23.06.332.332,0,0,0,.21-.13.335.335,0,0,0,.06-.24.3.3,0,0,0-.13-.2m-2.34,9.44a1.519,1.519,0,0,1-1.52,1.52H5.31a1.519,1.519,0,0,1-1.52-1.52V170.56l5.17-3.72a1.623,1.623,0,0,1,1.88,0l5.17,3.72Zm-7.03-3.99a2.16,2.16,0,0,0-2.15,2.15.314.314,0,0,0,.31.32h.01a.314.314,0,0,0,.31-.32,1.517,1.517,0,0,1,1.52-1.51h1.84a1.515,1.515,0,0,1,1.51,1.51.322.322,0,0,0,.32.32.314.314,0,0,0,.31-.32,2.16,2.16,0,0,0-2.15-2.15Zm-1.24-3.35a2.15,2.15,0,1,0,2.15-2.15,2.153,2.153,0,0,0-2.15,2.15m3.67,0a1.52,1.52,0,1,1-1.52-1.52,1.517,1.517,0,0,1,1.52,1.52m-1.52-2.15a2.15,2.15,0,1,0,2.15,2.15,2.153,2.153,0,0,0-2.15-2.15m0,3.66a1.515,1.515,0,1,1,1.52-1.51,1.517,1.517,0,0,1-1.52,1.51m.92,1.84H8.98a2.16,2.16,0,0,0-2.15,2.15.314.314,0,0,0,.31.32h.01a.314.314,0,0,0,.31-.32,1.517,1.517,0,0,1,1.52-1.51h1.84a1.515,1.515,0,0,1,1.51,1.51.322.322,0,0,0,.32.32.314.314,0,0,0,.31-.32,2.16,2.16,0,0,0-2.15-2.15m0,0H8.98a2.16,2.16,0,0,0-2.15,2.15.314.314,0,0,0,.31.32h.01a.314.314,0,0,0,.31-.32,1.517,1.517,0,0,1,1.52-1.51h1.84a1.515,1.515,0,0,1,1.51,1.51.322.322,0,0,0,.32.32.314.314,0,0,0,.31-.32,2.16,2.16,0,0,0-2.15-2.15m-.92-5.5a2.15,2.15,0,1,0,2.15,2.15,2.153,2.153,0,0,0-2.15-2.15m0,3.66a1.515,1.515,0,1,1,1.52-1.51,1.517,1.517,0,0,1-1.52,1.51m0-3.66a2.15,2.15,0,1,0,2.15,2.15,2.153,2.153,0,0,0-2.15-2.15m0,3.66a1.515,1.515,0,1,1,1.52-1.51,1.517,1.517,0,0,1-1.52,1.51m.92,1.84H8.98a2.16,2.16,0,0,0-2.15,2.15.314.314,0,0,0,.31.32h.01a.314.314,0,0,0,.31-.32,1.517,1.517,0,0,1,1.52-1.51h1.84a1.515,1.515,0,0,1,1.51,1.51.322.322,0,0,0,.32.32.314.314,0,0,0,.31-.32,2.16,2.16,0,0,0-2.15-2.15m0,0H8.98a2.16,2.16,0,0,0-2.15,2.15.314.314,0,0,0,.31.32h.01a.314.314,0,0,0,.31-.32,1.517,1.517,0,0,1,1.52-1.51h1.84a1.515,1.515,0,0,1,1.51,1.51.322.322,0,0,0,.32.32.314.314,0,0,0,.31-.32,2.16,2.16,0,0,0-2.15-2.15m-.92-5.5a2.15,2.15,0,1,0,2.15,2.15,2.153,2.153,0,0,0-2.15-2.15m0,3.66a1.515,1.515,0,1,1,1.52-1.51,1.517,1.517,0,0,1-1.52,1.51m0-3.66a2.15,2.15,0,1,0,2.15,2.15,2.153,2.153,0,0,0-2.15-2.15m0,3.66a1.515,1.515,0,1,1,1.52-1.51,1.517,1.517,0,0,1-1.52,1.51m.92,1.84H8.98a2.16,2.16,0,0,0-2.15,2.15.314.314,0,0,0,.31.32h.01a.314.314,0,0,0,.31-.32,1.517,1.517,0,0,1,1.52-1.51h1.84a1.515,1.515,0,0,1,1.51,1.51.322.322,0,0,0,.32.32.314.314,0,0,0,.31-.32,2.16,2.16,0,0,0-2.15-2.15m0,0H8.98a2.16,2.16,0,0,0-2.15,2.15.314.314,0,0,0,.31.32h.01a.314.314,0,0,0,.31-.32,1.517,1.517,0,0,1,1.52-1.51h1.84a1.515,1.515,0,0,1,1.51,1.51.322.322,0,0,0,.32.32.314.314,0,0,0,.31-.32,2.16,2.16,0,0,0-2.15-2.15m-.92-5.5a2.15,2.15,0,1,0,2.15,2.15,2.153,2.153,0,0,0-2.15-2.15m0,3.66a1.515,1.515,0,1,1,1.52-1.51,1.517,1.517,0,0,1-1.52,1.51" transform="translate(-1.322 -165.9)" fill="#fff"/>
</svg>
