<svg xmlns="http://www.w3.org/2000/svg" width="19.97" height="17.013" viewBox="0 0 19.97 17.013">
  <g id="Group_63561" data-name="Group 63561" transform="translate(-9802 -12108.9)">
    <path id="Path_51592" data-name="Path 51592" d="M15.51,349.6a.325.325,0,0,1-.1.24.332.332,0,0,1-.47,0l-.91-.94v3.68a.369.369,0,0,1-.1.24.358.358,0,0,1-.24.09.323.323,0,0,1-.33-.34v-3.66l-.91.93a.344.344,0,0,1-.48,0,.349.349,0,0,1-.1-.24.326.326,0,0,1,.1-.23l1.44-1.45.05-.04a.332.332,0,0,1,.47,0l1.48,1.48a.369.369,0,0,1,.1.24" transform="translate(9802 11773)" fill="#fff"/>
    <path id="Path_51593" data-name="Path 51593" d="M19.97,351.09a.369.369,0,0,1-.1.24l-1.49,1.49a.332.332,0,0,1-.47-.01l-1.49-1.48a.344.344,0,0,1,0-.48.325.325,0,0,1,.24-.1.29.29,0,0,1,.23.1l.92.94v-3.68a.349.349,0,0,1,.1-.24.334.334,0,0,1,.23-.09h.01a.29.29,0,0,1,.23.1.3.3,0,0,1,.1.24v3.67l.93-.96a.335.335,0,0,1,.44,0l.02.02a.369.369,0,0,1,.1.24" transform="translate(9802 11773)" fill="#fff"/>
    <path id="Path_51594" data-name="Path 51594" d="M17.01,344.39a8.61,8.61,0,0,1-.44,2.69.327.327,0,0,1-.41.19.3.3,0,0,1-.2-.16.313.313,0,0,1-.02-.25A7.837,7.837,0,1,0,.66,344.4a7.848,7.848,0,0,0,7.86,7.83,7.724,7.724,0,0,0,2.08-.28l.03-.01a.333.333,0,0,1,.42.22.347.347,0,0,1-.23.42,8.483,8.483,0,1,1,6.19-8.19" transform="translate(9802 11773)" fill="#fff"/>
    <path id="Path_51595" data-name="Path 51595" d="M10.99,347.5a.291.291,0,0,1,.05.22.294.294,0,0,1-.1.18,3.147,3.147,0,0,1-1.77.56,3.556,3.556,0,0,1-3.25-2.51l-.06-.18H4.87a.292.292,0,0,1-.27-.28.287.287,0,0,1,.26-.3h.89l-.06-.29a3.286,3.286,0,0,1,0-.99l.06-.29H4.83a.288.288,0,0,1-.2-.09.323.323,0,0,1-.08-.21.293.293,0,0,1,.31-.28h1l.06-.17a3.554,3.554,0,0,1,3.24-2.51,3.089,3.089,0,0,1,1.77.55.287.287,0,0,1-.31.48,2.537,2.537,0,0,0-1.47-.46,2.9,2.9,0,0,0-2.53,1.77l-.15.34H9.2a.288.288,0,0,1,.27.3.3.3,0,0,1-.31.28H6.31l-.04.21a3.76,3.76,0,0,0,0,1.16l.04.21h2.3a.284.284,0,0,1,.28.27.3.3,0,0,1-.27.3H6.47l.15.35a2.9,2.9,0,0,0,2.54,1.76,2.512,2.512,0,0,0,1.45-.45.284.284,0,0,1,.38.07" transform="translate(9802 11773)" fill="#fff"/>
  </g>
</svg>
