<svg xmlns="http://www.w3.org/2000/svg" width="18.957" height="13.77" viewBox="0 0 18.957 13.77">
  <g id="Group_63562" data-name="Group 63562" transform="translate(-9802.426 -11985.07)">
    <path id="Path_51596" data-name="Path 51596" d="M9.81,212.07a2.95,2.95,0,1,0,2.95,2.95,2.955,2.955,0,0,0-2.95-2.95m1.53,4.47a2.157,2.157,0,0,1-3.68-1.52,2.169,2.169,0,0,1,1.9-2.14v-.01l.25-.01a2.181,2.181,0,0,1,1.53.63,2.139,2.139,0,0,1,.63,1.53,2.116,2.116,0,0,1-.63,1.52" transform="translate(9802 11773)" fill="#fff"/>
    <path id="Path_51597" data-name="Path 51597" d="M3.77,215.43a2.215,2.215,0,1,0,2.21,2.21,2.219,2.219,0,0,0-2.21-2.21m0,3.63a1.415,1.415,0,1,1,1.41-1.42,1.419,1.419,0,0,1-1.41,1.42" transform="translate(9802 11773)" fill="#fff"/>
    <path id="Path_51598" data-name="Path 51598" d="M15.87,215.43a2.215,2.215,0,1,0,2.21,2.21,2.213,2.213,0,0,0-2.21-2.21m1,3.21a1.383,1.383,0,0,1-1,.42,1.432,1.432,0,0,1-1-.41,1.4,1.4,0,0,1-.42-1,1.423,1.423,0,0,1,1.41-1.42h.01a1.423,1.423,0,0,1,1.42,1.41,1.4,1.4,0,0,1-.42,1" transform="translate(9802 11773)" fill="#fff"/>
    <path id="Path_51599" data-name="Path 51599" d="M19.38,225.44a.4.4,0,0,1-.8.01,2.838,2.838,0,0,0-2.63-3,2.3,2.3,0,0,0-1.14.31l-.19.1.08.21a6.333,6.333,0,0,1,.44,2.32.4.4,0,0,1-.8.02,4.756,4.756,0,0,0-4.46-5.02,4.753,4.753,0,0,0-4.41,5.01.4.4,0,1,1-.8,0,6.425,6.425,0,0,1,.44-2.33l.08-.2L5,222.76a2.413,2.413,0,0,0-1.16-.3,2.824,2.824,0,0,0-2.61,2.98.4.4,0,1,1-.8-.01,3.614,3.614,0,0,1,3.42-3.77,3.172,3.172,0,0,1,1.51.39l.21.11.12-.2a5.093,5.093,0,0,1,4.21-2.37,5.1,5.1,0,0,1,4.22,2.37l.12.2.21-.11a3.166,3.166,0,0,1,1.44-.39h.05a3.639,3.639,0,0,1,3.44,3.78" transform="translate(9802 11773)" fill="#fff"/>
  </g>
</svg>
