<svg xmlns="http://www.w3.org/2000/svg" width="16.78" height="16.77" viewBox="0 0 16.78 16.77">
  <g id="Group_63563" data-name="Group 63563" transform="translate(-9803.07 -12150.62)">
    <path id="Path_51600" data-name="Path 51600" d="M9.46,380.67a2.67,2.67,0,1,0,2.67,2.67,2.669,2.669,0,0,0-2.67-2.67m0,4.57a1.905,1.905,0,1,1,1.91-1.9,1.9,1.9,0,0,1-1.91,1.9" transform="translate(9802 11773)" fill="#fff"/>
    <path id="Path_51601" data-name="Path 51601" d="M11.79,386.77H7.14a1.487,1.487,0,0,0-1.49,1.49v1.94a.38.38,0,0,0,.38.38h6.86a.382.382,0,0,0,.39-.38v-1.94a1.487,1.487,0,0,0-1.49-1.49m.72,3.05H6.41v-1.56a.728.728,0,0,1,.73-.73h4.65a.719.719,0,0,1,.72.73Z" transform="translate(9802 11773)" fill="#fff"/>
    <path id="Path_51602" data-name="Path 51602" d="M15.4,380.08a8.386,8.386,0,1,0,2.45,5.93,8.374,8.374,0,0,0-2.45-5.93m-.54,11.32a7.63,7.63,0,1,1,2.23-5.39,7.61,7.61,0,0,1-2.23,5.39" transform="translate(9802 11773)" fill="#fff"/>
  </g>
</svg>
